G75*
%MOIN*%
%OFA0B0*%
%FSLAX24Y24*%
%IPPOS*%
%LPD*%
%AMOC8*
5,1,8,0,0,1.08239X$1,22.5*
%
%ADD10R,0.2630X0.0680*%
%ADD11R,0.0674X0.0674*%
%ADD12C,0.0674*%
%ADD13C,0.0634*%
%ADD14R,0.0600X0.0600*%
%ADD15C,0.0600*%
%ADD16OC8,0.0600*%
%ADD17R,0.0710X0.0540*%
%ADD18C,0.0740*%
%ADD19C,0.0740*%
D10*
X031100Y005850D03*
X031100Y006850D03*
X031100Y008850D03*
X031100Y009850D03*
X031100Y010850D03*
X031100Y011850D03*
X031100Y012850D03*
X031100Y013850D03*
X031100Y014850D03*
X031100Y015850D03*
X031100Y016850D03*
X031100Y017850D03*
X031100Y018850D03*
X031100Y019850D03*
X031100Y021850D03*
X031100Y022850D03*
D11*
X016600Y019850D03*
X001600Y021850D03*
X013100Y001350D03*
D12*
X001600Y006850D03*
X001600Y007850D03*
X001600Y008850D03*
X001600Y009850D03*
X001600Y010850D03*
X001600Y011850D03*
X001600Y012850D03*
X001600Y013850D03*
X001600Y014850D03*
X001600Y015850D03*
X001600Y016850D03*
X001600Y018850D03*
X001600Y019850D03*
X001600Y020850D03*
X007600Y020850D03*
X007600Y019850D03*
X007600Y018850D03*
X007600Y017850D03*
X007600Y016850D03*
X007600Y015850D03*
X007600Y014850D03*
X007600Y013850D03*
X007600Y012850D03*
X007600Y011850D03*
X007600Y010850D03*
X007600Y009850D03*
X007600Y008850D03*
X007600Y007850D03*
X007600Y006850D03*
X013100Y004350D03*
X014100Y004350D03*
X015100Y004350D03*
X016100Y004350D03*
X017100Y004350D03*
X018100Y004350D03*
X019100Y004350D03*
X020100Y004350D03*
X021100Y004350D03*
X022100Y004350D03*
X022600Y006850D03*
X022600Y007850D03*
X022600Y008850D03*
X022600Y009850D03*
X022600Y010850D03*
X022600Y011850D03*
X022600Y012850D03*
X022600Y013850D03*
X022600Y014850D03*
X022600Y015850D03*
X022600Y016850D03*
X022600Y017850D03*
X022600Y018850D03*
X022600Y019850D03*
X016600Y018850D03*
X016600Y017850D03*
X016600Y016850D03*
X016600Y015850D03*
X016600Y014850D03*
X016600Y013850D03*
X016600Y012850D03*
X016600Y011850D03*
X016600Y010850D03*
X016600Y009850D03*
X016600Y008850D03*
X016600Y007850D03*
X016600Y006850D03*
X016100Y001350D03*
X017100Y001350D03*
X018100Y001350D03*
X019100Y001350D03*
X020100Y001350D03*
X021100Y001350D03*
X022100Y001350D03*
X015100Y001350D03*
X014100Y001350D03*
X007600Y021850D03*
D13*
X001600Y017850D03*
D14*
X009100Y021850D03*
X013100Y024350D03*
D15*
X014100Y024350D03*
X015100Y024350D03*
X016100Y024350D03*
X017100Y024350D03*
X018100Y024350D03*
X019100Y024350D03*
X020100Y024350D03*
X021100Y024350D03*
X022100Y024350D03*
X022100Y027350D03*
X021100Y027350D03*
X020100Y027350D03*
X019100Y027350D03*
X018100Y027350D03*
X017100Y027350D03*
X016100Y027350D03*
X015100Y027350D03*
X014100Y027350D03*
X013100Y027350D03*
X015100Y021850D03*
X015100Y020850D03*
X015100Y019850D03*
X015100Y018850D03*
X015100Y017850D03*
X015100Y016850D03*
X015100Y015850D03*
X015100Y014850D03*
X015100Y013850D03*
X015100Y012850D03*
X015100Y011850D03*
X015100Y010850D03*
X015100Y009850D03*
X015100Y008850D03*
X015100Y007850D03*
X015100Y006850D03*
X009100Y006850D03*
X009100Y007850D03*
X009100Y008850D03*
X009100Y009850D03*
X009100Y010850D03*
X009100Y011850D03*
X009100Y012850D03*
X009100Y013850D03*
X009100Y014850D03*
X009100Y015850D03*
X009100Y016850D03*
X009100Y017850D03*
X009100Y018850D03*
X009100Y019850D03*
X009100Y020850D03*
D16*
X007600Y022850D03*
X006600Y022850D03*
X005600Y024350D03*
X004600Y024350D03*
X003600Y024350D03*
X003600Y027350D03*
X004600Y027350D03*
X005600Y027350D03*
X011600Y027350D03*
X011600Y026350D03*
X014100Y022850D03*
X015100Y022850D03*
X021600Y020850D03*
X022600Y020850D03*
X011600Y004350D03*
X011600Y003350D03*
D17*
X023600Y018300D03*
X023600Y018850D03*
X023600Y019400D03*
D18*
X022100Y005350D03*
X021100Y005350D03*
X012100Y001350D03*
X011100Y001350D03*
D19*
X022770Y021850D02*
X023430Y021850D01*
M02*
