G75*
%MOIN*%
%OFA0B0*%
%FSLAX24Y24*%
%IPPOS*%
%LPD*%
%AMOC8*
5,1,8,0,0,1.08239X$1,22.5*
%
%ADD10C,0.0060*%
%ADD11C,0.0000*%
%ADD12C,0.0040*%
%ADD13C,0.0100*%
%ADD14C,0.0200*%
%ADD15R,0.0200X0.0150*%
%ADD16C,0.0080*%
%ADD17C,0.0050*%
%ADD18R,0.0600X0.0400*%
%ADD19R,0.0200X0.0200*%
D10*
X001950Y006350D02*
X007250Y006350D01*
X007250Y022350D01*
X005000Y022350D01*
X004998Y022311D01*
X004992Y022272D01*
X004983Y022234D01*
X004970Y022197D01*
X004953Y022161D01*
X004933Y022128D01*
X004909Y022096D01*
X004883Y022067D01*
X004854Y022041D01*
X004822Y022017D01*
X004789Y021997D01*
X004753Y021980D01*
X004716Y021967D01*
X004678Y021958D01*
X004639Y021952D01*
X004600Y021950D01*
X004561Y021952D01*
X004522Y021958D01*
X004484Y021967D01*
X004447Y021980D01*
X004411Y021997D01*
X004378Y022017D01*
X004346Y022041D01*
X004317Y022067D01*
X004291Y022096D01*
X004267Y022128D01*
X004247Y022161D01*
X004230Y022197D01*
X004217Y022234D01*
X004208Y022272D01*
X004202Y022311D01*
X004200Y022350D01*
X001950Y022350D01*
X001950Y006350D01*
X009450Y006350D02*
X014750Y006350D01*
X014750Y022350D01*
X012500Y022350D01*
X012498Y022311D01*
X012492Y022272D01*
X012483Y022234D01*
X012470Y022197D01*
X012453Y022161D01*
X012433Y022128D01*
X012409Y022096D01*
X012383Y022067D01*
X012354Y022041D01*
X012322Y022017D01*
X012289Y021997D01*
X012253Y021980D01*
X012216Y021967D01*
X012178Y021958D01*
X012139Y021952D01*
X012100Y021950D01*
X012061Y021952D01*
X012022Y021958D01*
X011984Y021967D01*
X011947Y021980D01*
X011911Y021997D01*
X011878Y022017D01*
X011846Y022041D01*
X011817Y022067D01*
X011791Y022096D01*
X011767Y022128D01*
X011747Y022161D01*
X011730Y022197D01*
X011717Y022234D01*
X011708Y022272D01*
X011702Y022311D01*
X011700Y022350D01*
X009450Y022350D01*
X009450Y006350D01*
X011100Y004700D02*
X011100Y003000D01*
X011102Y002983D01*
X011106Y002966D01*
X011113Y002950D01*
X011123Y002936D01*
X011136Y002923D01*
X011150Y002913D01*
X011166Y002906D01*
X011183Y002902D01*
X011200Y002900D01*
X012000Y002900D01*
X012017Y002902D01*
X012034Y002906D01*
X012050Y002913D01*
X012064Y002923D01*
X012077Y002936D01*
X012087Y002950D01*
X012094Y002966D01*
X012098Y002983D01*
X012100Y003000D01*
X012100Y004700D01*
X012098Y004717D01*
X012094Y004734D01*
X012087Y004750D01*
X012077Y004764D01*
X012064Y004777D01*
X012050Y004787D01*
X012034Y004794D01*
X012017Y004798D01*
X012000Y004800D01*
X011200Y004800D01*
X011183Y004798D01*
X011166Y004794D01*
X011150Y004787D01*
X011136Y004777D01*
X011123Y004764D01*
X011113Y004750D01*
X011106Y004734D01*
X011102Y004717D01*
X011100Y004700D01*
X011600Y004150D02*
X011600Y004000D01*
X011600Y003950D01*
X011600Y003750D02*
X011600Y003700D01*
X011600Y003550D01*
X012600Y003250D02*
X012600Y004000D01*
X022600Y004000D01*
X022600Y001700D01*
X012600Y001700D01*
X012600Y002450D01*
X012639Y002452D01*
X012678Y002458D01*
X012716Y002467D01*
X012753Y002480D01*
X012789Y002497D01*
X012822Y002517D01*
X012854Y002541D01*
X012883Y002567D01*
X012909Y002596D01*
X012933Y002628D01*
X012953Y002661D01*
X012970Y002697D01*
X012983Y002734D01*
X012992Y002772D01*
X012998Y002811D01*
X013000Y002850D01*
X012998Y002889D01*
X012992Y002928D01*
X012983Y002966D01*
X012970Y003003D01*
X012953Y003039D01*
X012933Y003072D01*
X012909Y003104D01*
X012883Y003133D01*
X012854Y003159D01*
X012822Y003183D01*
X012789Y003203D01*
X012753Y003220D01*
X012716Y003233D01*
X012678Y003242D01*
X012639Y003248D01*
X012600Y003250D01*
X011319Y002360D02*
X011189Y002230D01*
X011363Y002230D01*
X011319Y002100D02*
X011319Y002360D01*
X010981Y002360D02*
X010981Y002100D01*
X010895Y002100D02*
X011068Y002100D01*
X010895Y002273D02*
X010981Y002360D01*
X010773Y002273D02*
X010773Y002100D01*
X010773Y002230D02*
X010600Y002230D01*
X010600Y002273D02*
X010687Y002360D01*
X010773Y002273D01*
X010600Y002273D02*
X010600Y002100D01*
X016950Y006350D02*
X022250Y006350D01*
X022250Y020350D01*
X020000Y020350D01*
X019998Y020311D01*
X019992Y020272D01*
X019983Y020234D01*
X019970Y020197D01*
X019953Y020161D01*
X019933Y020128D01*
X019909Y020096D01*
X019883Y020067D01*
X019854Y020041D01*
X019822Y020017D01*
X019789Y019997D01*
X019753Y019980D01*
X019716Y019967D01*
X019678Y019958D01*
X019639Y019952D01*
X019600Y019950D01*
X019561Y019952D01*
X019522Y019958D01*
X019484Y019967D01*
X019447Y019980D01*
X019411Y019997D01*
X019378Y020017D01*
X019346Y020041D01*
X019317Y020067D01*
X019291Y020096D01*
X019267Y020128D01*
X019247Y020161D01*
X019230Y020197D01*
X019217Y020234D01*
X019208Y020272D01*
X019202Y020311D01*
X019200Y020350D01*
X016950Y020350D01*
X016950Y006350D01*
X019279Y006446D02*
X019386Y006339D01*
X019279Y006446D02*
X019279Y006659D01*
X019386Y006766D01*
X019493Y006766D01*
X019920Y006339D01*
X019920Y006766D01*
X019920Y006984D02*
X019813Y006984D01*
X019386Y007411D01*
X019279Y007411D01*
X019279Y006984D01*
X019386Y007628D02*
X019813Y007628D01*
X019920Y007735D01*
X019920Y007948D01*
X019813Y008055D01*
X019920Y008273D02*
X019920Y008700D01*
X019920Y008486D02*
X019279Y008486D01*
X019493Y008273D01*
X019386Y008055D02*
X019279Y007948D01*
X019279Y007735D01*
X019386Y007628D01*
X019386Y008917D02*
X019279Y009024D01*
X019279Y009237D01*
X019386Y009344D01*
X019493Y009344D01*
X019920Y008917D01*
X019920Y009344D01*
X019813Y009562D02*
X019706Y009562D01*
X019600Y009668D01*
X019600Y009882D01*
X019706Y009989D01*
X019813Y009989D01*
X019920Y009882D01*
X019920Y009668D01*
X019813Y009562D01*
X019600Y009668D02*
X019493Y009562D01*
X019386Y009562D01*
X019279Y009668D01*
X019279Y009882D01*
X019386Y009989D01*
X019493Y009989D01*
X019600Y009882D01*
X019920Y010206D02*
X019279Y010633D01*
X019386Y010851D02*
X019279Y010958D01*
X019279Y011171D01*
X019386Y011278D01*
X019493Y011278D01*
X019920Y010851D01*
X019920Y011278D01*
X019920Y011495D02*
X019813Y011495D01*
X019386Y011922D01*
X019279Y011922D01*
X019279Y011495D01*
X019386Y012140D02*
X019813Y012140D01*
X019920Y012247D01*
X019920Y012460D01*
X019813Y012567D01*
X019920Y012784D02*
X019493Y013212D01*
X019386Y013212D01*
X019279Y013105D01*
X019279Y012891D01*
X019386Y012784D01*
X019386Y012567D02*
X019279Y012460D01*
X019279Y012247D01*
X019386Y012140D01*
X019920Y012784D02*
X019920Y013212D01*
X019813Y013429D02*
X019920Y013536D01*
X019920Y013749D01*
X019813Y013856D01*
X019600Y013856D01*
X019493Y013749D01*
X019493Y013643D01*
X019600Y013429D01*
X019279Y013429D01*
X019279Y013856D01*
X019600Y014074D02*
X019386Y014287D01*
X019279Y014501D01*
X019600Y014394D02*
X019600Y014074D01*
X019813Y014074D01*
X019920Y014180D01*
X019920Y014394D01*
X019813Y014501D01*
X019706Y014501D01*
X019600Y014394D01*
X019920Y014718D02*
X019279Y015145D01*
X019386Y015363D02*
X019279Y015469D01*
X019279Y015683D01*
X019386Y015790D01*
X019493Y015790D01*
X019920Y015363D01*
X019920Y015790D01*
X019813Y016007D02*
X019920Y016114D01*
X019920Y016328D01*
X019813Y016434D01*
X019706Y016434D01*
X019600Y016328D01*
X019600Y016114D01*
X019493Y016007D01*
X019386Y016007D01*
X019279Y016114D01*
X019279Y016328D01*
X019386Y016434D01*
X019493Y016434D01*
X019600Y016328D01*
X019600Y016114D02*
X019706Y016007D01*
X019813Y016007D01*
X019813Y016652D02*
X019386Y016652D01*
X019279Y016759D01*
X019279Y016972D01*
X019386Y017079D01*
X019386Y017296D02*
X019279Y017403D01*
X019279Y017617D01*
X019386Y017723D01*
X019493Y017723D01*
X019920Y017296D01*
X019920Y017723D01*
X019813Y017941D02*
X019920Y018048D01*
X019920Y018261D01*
X019813Y018368D01*
X019600Y018368D01*
X019493Y018261D01*
X019493Y018154D01*
X019600Y017941D01*
X019279Y017941D01*
X019279Y018368D01*
X019600Y018585D02*
X019386Y018799D01*
X019279Y019012D01*
X019600Y018906D02*
X019600Y018585D01*
X019813Y018585D01*
X019920Y018692D01*
X019920Y018906D01*
X019813Y019012D01*
X019706Y019012D01*
X019600Y018906D01*
X021250Y020350D02*
X022950Y020350D01*
X022967Y020352D01*
X022984Y020356D01*
X023000Y020363D01*
X023014Y020373D01*
X023027Y020386D01*
X023037Y020400D01*
X023044Y020416D01*
X023048Y020433D01*
X023050Y020450D01*
X023050Y021250D01*
X023048Y021267D01*
X023044Y021284D01*
X023037Y021300D01*
X023027Y021314D01*
X023014Y021327D01*
X023000Y021337D01*
X022984Y021344D01*
X022967Y021348D01*
X022950Y021350D01*
X021250Y021350D01*
X021233Y021348D01*
X021216Y021344D01*
X021200Y021337D01*
X021186Y021327D01*
X021173Y021314D01*
X021163Y021300D01*
X021156Y021284D01*
X021152Y021267D01*
X021150Y021250D01*
X021150Y020450D01*
X021152Y020433D01*
X021156Y020416D01*
X021163Y020400D01*
X021173Y020386D01*
X021186Y020373D01*
X021200Y020363D01*
X021216Y020356D01*
X021233Y020352D01*
X021250Y020350D01*
X021800Y020850D02*
X021950Y020850D01*
X022000Y020850D01*
X022200Y020850D02*
X022250Y020850D01*
X022400Y020850D01*
X023850Y021613D02*
X023937Y021700D01*
X024110Y021700D01*
X024067Y021821D02*
X024110Y021864D01*
X024110Y021951D01*
X024067Y021994D01*
X023850Y021994D01*
X023850Y022115D02*
X023850Y022245D01*
X023893Y022289D01*
X024067Y022289D01*
X024110Y022245D01*
X024110Y022115D01*
X023850Y022115D01*
X023850Y021821D02*
X024067Y021821D01*
X023980Y021700D02*
X023980Y021526D01*
X023937Y021526D02*
X023850Y021613D01*
X023937Y021526D02*
X024110Y021526D01*
X026429Y021484D02*
X026429Y021164D01*
X027070Y021164D01*
X027070Y021484D01*
X026963Y021591D01*
X026856Y021591D01*
X026750Y021484D01*
X026750Y021164D01*
X026643Y020947D02*
X026856Y020626D01*
X027070Y020947D01*
X027070Y020626D02*
X026429Y020626D01*
X026429Y020409D02*
X026536Y020195D01*
X026750Y019982D01*
X026750Y020302D01*
X026856Y020409D01*
X026963Y020409D01*
X027070Y020302D01*
X027070Y020089D01*
X026963Y019982D01*
X026750Y019982D01*
X026750Y019764D02*
X026963Y019764D01*
X027070Y019658D01*
X027070Y019444D01*
X026963Y019337D01*
X026750Y019337D02*
X026643Y019551D01*
X026643Y019658D01*
X026750Y019764D01*
X026429Y019764D02*
X026429Y019337D01*
X026750Y019337D01*
X026643Y019120D02*
X026536Y019120D01*
X026429Y019013D01*
X026429Y018800D01*
X026536Y018693D01*
X026643Y019120D02*
X027070Y018693D01*
X027070Y019120D01*
X026429Y017831D02*
X026429Y017404D01*
X026429Y017617D02*
X027070Y017617D01*
X027070Y017186D02*
X026856Y016973D01*
X026856Y017079D02*
X026856Y016759D01*
X027070Y016759D02*
X026429Y016759D01*
X026429Y017079D01*
X026536Y017186D01*
X026750Y017186D01*
X026856Y017079D01*
X026750Y016542D02*
X026750Y016115D01*
X026643Y016115D02*
X026429Y016328D01*
X026643Y016542D01*
X027070Y016542D01*
X027070Y016115D02*
X026643Y016115D01*
X026536Y015897D02*
X026429Y015790D01*
X026429Y015577D01*
X026536Y015470D01*
X026963Y015470D01*
X027070Y015577D01*
X027070Y015790D01*
X026963Y015897D01*
X026856Y015253D02*
X026429Y015253D01*
X026856Y015253D02*
X027070Y015039D01*
X026856Y014825D01*
X026429Y014825D01*
X026429Y014608D02*
X026429Y014181D01*
X027070Y014181D01*
X027070Y014608D01*
X026750Y014394D02*
X026750Y014181D01*
X026963Y013963D02*
X026536Y013963D01*
X026429Y013857D01*
X026429Y013536D01*
X027070Y013536D01*
X027070Y013857D01*
X026963Y013963D01*
X026963Y012674D02*
X026536Y012674D01*
X026963Y012247D01*
X027070Y012354D01*
X027070Y012568D01*
X026963Y012674D01*
X026536Y012674D02*
X026429Y012568D01*
X026429Y012354D01*
X026536Y012247D01*
X026963Y012247D01*
X026963Y012030D02*
X026536Y012030D01*
X026963Y011603D01*
X027070Y011710D01*
X027070Y011923D01*
X026963Y012030D01*
X026536Y012030D02*
X026429Y011923D01*
X026429Y011710D01*
X026536Y011603D01*
X026963Y011603D01*
X026963Y011385D02*
X026856Y011385D01*
X026750Y011278D01*
X026750Y011065D01*
X026643Y010958D01*
X026536Y010958D01*
X026429Y011065D01*
X026429Y011278D01*
X026536Y011385D01*
X026643Y011385D01*
X026750Y011278D01*
X026750Y011065D02*
X026856Y010958D01*
X026963Y010958D01*
X027070Y011065D01*
X027070Y011278D01*
X026963Y011385D01*
X026536Y010741D02*
X026429Y010741D01*
X026429Y010314D01*
X026536Y010741D02*
X026963Y010314D01*
X027070Y010314D01*
X026536Y009452D02*
X026429Y009452D01*
X026536Y009452D02*
X026750Y009238D01*
X027070Y009238D01*
X026750Y009238D02*
X026536Y009025D01*
X026429Y009025D01*
X026429Y008807D02*
X027070Y008807D01*
X027070Y008380D02*
X026429Y008380D01*
X026643Y008594D01*
X026429Y008807D01*
X022539Y006057D02*
X022539Y006013D01*
X022365Y005840D01*
X022539Y005840D01*
X022539Y006057D02*
X022495Y006100D01*
X022409Y006100D01*
X022365Y006057D01*
X022256Y006100D02*
X022169Y006100D01*
X022212Y006100D02*
X022212Y005840D01*
X022169Y005840D02*
X022256Y005840D01*
X022048Y005840D02*
X022048Y006100D01*
X022048Y005970D02*
X021874Y005970D01*
X021753Y005970D02*
X021710Y005927D01*
X021580Y005927D01*
X021580Y005840D02*
X021580Y006100D01*
X021710Y006100D01*
X021753Y006057D01*
X021753Y005970D01*
X021874Y005840D02*
X021874Y006100D01*
X012420Y013940D02*
X012420Y014260D01*
X012313Y014367D01*
X012206Y014367D01*
X012100Y014260D01*
X012100Y013940D01*
X012420Y013940D02*
X011779Y013940D01*
X011779Y014260D01*
X011886Y014367D01*
X011993Y014367D01*
X012100Y014260D01*
X011993Y014584D02*
X012100Y014691D01*
X012100Y014905D01*
X012206Y015012D01*
X012313Y015012D01*
X012420Y014905D01*
X012420Y014691D01*
X012313Y014584D01*
X011993Y014584D02*
X011886Y014584D01*
X011779Y014691D01*
X011779Y014905D01*
X011886Y015012D01*
X012100Y015229D02*
X012100Y015549D01*
X012206Y015656D01*
X012313Y015656D01*
X012420Y015549D01*
X012420Y015336D01*
X012313Y015229D01*
X012100Y015229D01*
X011886Y015443D01*
X011779Y015656D01*
X011886Y015874D02*
X011779Y015980D01*
X011779Y016194D01*
X011886Y016301D01*
X011993Y016301D01*
X012420Y015874D01*
X012420Y016301D01*
X012420Y016518D02*
X012420Y016945D01*
X012206Y017163D02*
X012420Y017376D01*
X012206Y017590D01*
X011779Y017590D01*
X011993Y017807D02*
X011779Y018021D01*
X012420Y018021D01*
X012420Y018234D02*
X012420Y017807D01*
X012313Y018452D02*
X011886Y018452D01*
X011779Y018559D01*
X011779Y018772D01*
X011886Y018879D01*
X012313Y018452D01*
X012420Y018559D01*
X012420Y018772D01*
X012313Y018879D01*
X011886Y018879D01*
X011886Y019096D02*
X011779Y019203D01*
X011779Y019417D01*
X011886Y019523D01*
X011993Y019523D01*
X012420Y019096D01*
X012420Y019523D01*
X012420Y019741D02*
X012313Y019741D01*
X011886Y020168D01*
X011779Y020168D01*
X011779Y019741D01*
X011779Y020385D02*
X011779Y020706D01*
X011886Y020812D01*
X012100Y020812D01*
X012206Y020706D01*
X012206Y020385D01*
X012420Y020385D02*
X011779Y020385D01*
X013750Y022350D02*
X015450Y022350D01*
X015467Y022352D01*
X015484Y022356D01*
X015500Y022363D01*
X015514Y022373D01*
X015527Y022386D01*
X015537Y022400D01*
X015544Y022416D01*
X015548Y022433D01*
X015550Y022450D01*
X015550Y023250D01*
X015548Y023267D01*
X015544Y023284D01*
X015537Y023300D01*
X015527Y023314D01*
X015514Y023327D01*
X015500Y023337D01*
X015484Y023344D01*
X015467Y023348D01*
X015450Y023350D01*
X013750Y023350D01*
X013733Y023348D01*
X013716Y023344D01*
X013700Y023337D01*
X013686Y023327D01*
X013673Y023314D01*
X013663Y023300D01*
X013656Y023284D01*
X013652Y023267D01*
X013650Y023250D01*
X013650Y022450D01*
X013652Y022433D01*
X013656Y022416D01*
X013663Y022400D01*
X013673Y022386D01*
X013686Y022373D01*
X013700Y022363D01*
X013716Y022356D01*
X013733Y022352D01*
X013750Y022350D01*
X014300Y022850D02*
X014450Y022850D01*
X014500Y022850D01*
X014700Y022850D02*
X014750Y022850D01*
X014900Y022850D01*
X017030Y021171D02*
X017350Y021171D01*
X017457Y021064D01*
X017457Y020850D01*
X017350Y020744D01*
X017030Y020744D01*
X017244Y020744D02*
X017457Y020530D01*
X017675Y020637D02*
X017781Y020530D01*
X017995Y020530D01*
X018102Y020637D01*
X018102Y021064D01*
X017995Y021171D01*
X017781Y021171D01*
X017675Y021064D01*
X017675Y020637D01*
X018319Y020530D02*
X018319Y021171D01*
X018533Y020957D01*
X018746Y021171D01*
X018746Y020530D01*
X017030Y020530D02*
X017030Y021171D01*
X012600Y024700D02*
X012600Y025450D01*
X012639Y025452D01*
X012678Y025458D01*
X012716Y025467D01*
X012753Y025480D01*
X012789Y025497D01*
X012822Y025517D01*
X012854Y025541D01*
X012883Y025567D01*
X012909Y025596D01*
X012933Y025628D01*
X012953Y025661D01*
X012970Y025697D01*
X012983Y025734D01*
X012992Y025772D01*
X012998Y025811D01*
X013000Y025850D01*
X012998Y025889D01*
X012992Y025928D01*
X012983Y025966D01*
X012970Y026003D01*
X012953Y026039D01*
X012933Y026072D01*
X012909Y026104D01*
X012883Y026133D01*
X012854Y026159D01*
X012822Y026183D01*
X012789Y026203D01*
X012753Y026220D01*
X012716Y026233D01*
X012678Y026242D01*
X012639Y026248D01*
X012600Y026250D01*
X012600Y027000D01*
X022600Y027000D01*
X022600Y024700D01*
X012600Y024700D01*
X012000Y025900D02*
X011200Y025900D01*
X011183Y025902D01*
X011166Y025906D01*
X011150Y025913D01*
X011136Y025923D01*
X011123Y025936D01*
X011113Y025950D01*
X011106Y025966D01*
X011102Y025983D01*
X011100Y026000D01*
X011100Y027700D01*
X011102Y027717D01*
X011106Y027734D01*
X011113Y027750D01*
X011123Y027764D01*
X011136Y027777D01*
X011150Y027787D01*
X011166Y027794D01*
X011183Y027798D01*
X011200Y027800D01*
X012000Y027800D01*
X012017Y027798D01*
X012034Y027794D01*
X012050Y027787D01*
X012064Y027777D01*
X012077Y027764D01*
X012087Y027750D01*
X012094Y027734D01*
X012098Y027717D01*
X012100Y027700D01*
X012100Y026000D01*
X012098Y025983D01*
X012094Y025966D01*
X012087Y025950D01*
X012077Y025936D01*
X012064Y025923D01*
X012050Y025913D01*
X012034Y025906D01*
X012017Y025902D01*
X012000Y025900D01*
X011600Y026550D02*
X011600Y026700D01*
X011600Y026750D01*
X011600Y026950D02*
X011600Y027000D01*
X011600Y027150D01*
X007950Y023350D02*
X006250Y023350D01*
X006233Y023348D01*
X006216Y023344D01*
X006200Y023337D01*
X006186Y023327D01*
X006173Y023314D01*
X006163Y023300D01*
X006156Y023284D01*
X006152Y023267D01*
X006150Y023250D01*
X006150Y022450D01*
X006152Y022433D01*
X006156Y022416D01*
X006163Y022400D01*
X006173Y022386D01*
X006186Y022373D01*
X006200Y022363D01*
X006216Y022356D01*
X006233Y022352D01*
X006250Y022350D01*
X007950Y022350D01*
X007967Y022352D01*
X007984Y022356D01*
X008000Y022363D01*
X008014Y022373D01*
X008027Y022386D01*
X008037Y022400D01*
X008044Y022416D01*
X008048Y022433D01*
X008050Y022450D01*
X008050Y023250D01*
X008048Y023267D01*
X008044Y023284D01*
X008037Y023300D01*
X008027Y023314D01*
X008014Y023327D01*
X008000Y023337D01*
X007984Y023344D01*
X007967Y023348D01*
X007950Y023350D01*
X007400Y022850D02*
X007250Y022850D01*
X007200Y022850D01*
X007000Y022850D02*
X006950Y022850D01*
X006800Y022850D01*
X005900Y024850D02*
X005300Y024850D01*
X005283Y024852D01*
X005266Y024856D01*
X005250Y024863D01*
X005236Y024873D01*
X005223Y024886D01*
X005213Y024900D01*
X005206Y024916D01*
X005202Y024933D01*
X005200Y024950D01*
X005200Y025100D01*
X005250Y025150D01*
X005250Y026550D01*
X005200Y026600D01*
X005200Y026750D01*
X005202Y026767D01*
X005206Y026784D01*
X005213Y026800D01*
X005223Y026814D01*
X005236Y026827D01*
X005250Y026837D01*
X005266Y026844D01*
X005283Y026848D01*
X005300Y026850D01*
X005900Y026850D01*
X005917Y026848D01*
X005934Y026844D01*
X005950Y026837D01*
X005964Y026827D01*
X005977Y026814D01*
X005987Y026800D01*
X005994Y026784D01*
X005998Y026767D01*
X006000Y026750D01*
X006000Y026600D01*
X005950Y026550D01*
X005950Y025150D01*
X006000Y025100D01*
X006000Y024950D01*
X005998Y024933D01*
X005994Y024916D01*
X005987Y024900D01*
X005977Y024886D01*
X005964Y024873D01*
X005950Y024863D01*
X005934Y024856D01*
X005917Y024852D01*
X005900Y024850D01*
X005000Y024950D02*
X005000Y025100D01*
X004950Y025150D01*
X004950Y026550D01*
X005000Y026600D01*
X005000Y026750D01*
X004998Y026767D01*
X004994Y026784D01*
X004987Y026800D01*
X004977Y026814D01*
X004964Y026827D01*
X004950Y026837D01*
X004934Y026844D01*
X004917Y026848D01*
X004900Y026850D01*
X004300Y026850D01*
X004283Y026848D01*
X004266Y026844D01*
X004250Y026837D01*
X004236Y026827D01*
X004223Y026814D01*
X004213Y026800D01*
X004206Y026784D01*
X004202Y026767D01*
X004200Y026750D01*
X004200Y026600D01*
X004250Y026550D01*
X004250Y025150D01*
X004200Y025100D01*
X004200Y024950D01*
X004202Y024933D01*
X004206Y024916D01*
X004213Y024900D01*
X004223Y024886D01*
X004236Y024873D01*
X004250Y024863D01*
X004266Y024856D01*
X004283Y024852D01*
X004300Y024850D01*
X004900Y024850D01*
X004917Y024852D01*
X004934Y024856D01*
X004950Y024863D01*
X004964Y024873D01*
X004977Y024886D01*
X004987Y024900D01*
X004994Y024916D01*
X004998Y024933D01*
X005000Y024950D01*
X004000Y024950D02*
X004000Y025100D01*
X003950Y025150D01*
X003950Y026550D01*
X004000Y026600D01*
X004000Y026750D01*
X003998Y026767D01*
X003994Y026784D01*
X003987Y026800D01*
X003977Y026814D01*
X003964Y026827D01*
X003950Y026837D01*
X003934Y026844D01*
X003917Y026848D01*
X003900Y026850D01*
X003300Y026850D01*
X003283Y026848D01*
X003266Y026844D01*
X003250Y026837D01*
X003236Y026827D01*
X003223Y026814D01*
X003213Y026800D01*
X003206Y026784D01*
X003202Y026767D01*
X003200Y026750D01*
X003200Y026600D01*
X003250Y026550D01*
X003250Y025150D01*
X003200Y025100D01*
X003200Y024950D01*
X003202Y024933D01*
X003206Y024916D01*
X003213Y024900D01*
X003223Y024886D01*
X003236Y024873D01*
X003250Y024863D01*
X003266Y024856D01*
X003283Y024852D01*
X003300Y024850D01*
X003900Y024850D01*
X003917Y024852D01*
X003934Y024856D01*
X003950Y024863D01*
X003964Y024873D01*
X003977Y024886D01*
X003987Y024900D01*
X003994Y024916D01*
X003998Y024933D01*
X004000Y024950D01*
X004177Y023171D02*
X004177Y022530D01*
X003964Y022530D02*
X004391Y022530D01*
X003964Y022957D02*
X004177Y023171D01*
X003746Y023171D02*
X003533Y022957D01*
X003319Y023171D01*
X003319Y022530D01*
X003102Y022530D02*
X003102Y022957D01*
X002888Y023171D01*
X002675Y022957D01*
X002675Y022530D01*
X002457Y022530D02*
X002244Y022744D01*
X002350Y022744D02*
X002030Y022744D01*
X002030Y022530D02*
X002030Y023171D01*
X002350Y023171D01*
X002457Y023064D01*
X002457Y022850D01*
X002350Y022744D01*
X002675Y022850D02*
X003102Y022850D01*
X003746Y023171D02*
X003746Y022530D01*
X004386Y020812D02*
X004600Y020812D01*
X004706Y020706D01*
X004706Y020385D01*
X004920Y020385D02*
X004279Y020385D01*
X004279Y020706D01*
X004386Y020812D01*
X004386Y020168D02*
X004813Y019741D01*
X004920Y019741D01*
X004920Y019523D02*
X004920Y019096D01*
X004493Y019523D01*
X004386Y019523D01*
X004279Y019417D01*
X004279Y019203D01*
X004386Y019096D01*
X004386Y018879D02*
X004813Y018452D01*
X004920Y018559D01*
X004920Y018772D01*
X004813Y018879D01*
X004386Y018879D01*
X004279Y018772D01*
X004279Y018559D01*
X004386Y018452D01*
X004813Y018452D01*
X004920Y018234D02*
X004920Y017807D01*
X004920Y018021D02*
X004279Y018021D01*
X004493Y017807D01*
X004706Y017590D02*
X004279Y017590D01*
X004706Y017590D02*
X004920Y017376D01*
X004706Y017163D01*
X004279Y017163D01*
X004279Y016518D02*
X004920Y016518D01*
X004920Y016945D01*
X004920Y016301D02*
X004920Y015874D01*
X004493Y016301D01*
X004386Y016301D01*
X004279Y016194D01*
X004279Y015980D01*
X004386Y015874D01*
X004279Y015656D02*
X004386Y015443D01*
X004600Y015229D01*
X004600Y015549D01*
X004706Y015656D01*
X004813Y015656D01*
X004920Y015549D01*
X004920Y015336D01*
X004813Y015229D01*
X004600Y015229D01*
X004706Y015012D02*
X004813Y015012D01*
X004920Y014905D01*
X004920Y014691D01*
X004813Y014584D01*
X004813Y014367D02*
X004920Y014260D01*
X004920Y013940D01*
X004279Y013940D01*
X004279Y014260D01*
X004386Y014367D01*
X004493Y014367D01*
X004600Y014260D01*
X004600Y013940D01*
X004600Y014260D02*
X004706Y014367D01*
X004813Y014367D01*
X004493Y014584D02*
X004600Y014691D01*
X004600Y014905D01*
X004706Y015012D01*
X004386Y015012D02*
X004279Y014905D01*
X004279Y014691D01*
X004386Y014584D01*
X004493Y014584D01*
X004279Y019741D02*
X004279Y020168D01*
X004386Y020168D01*
X009530Y022530D02*
X009530Y023171D01*
X009850Y023171D01*
X009957Y023064D01*
X009957Y022850D01*
X009850Y022744D01*
X009530Y022744D01*
X009744Y022744D02*
X009957Y022530D01*
X010175Y022530D02*
X010175Y022957D01*
X010388Y023171D01*
X010602Y022957D01*
X010602Y022530D01*
X010819Y022530D02*
X010819Y023171D01*
X011033Y022957D01*
X011246Y023171D01*
X011246Y022530D01*
X011464Y022530D02*
X011891Y022957D01*
X011891Y023064D01*
X011784Y023171D01*
X011570Y023171D01*
X011464Y023064D01*
X011464Y022530D02*
X011891Y022530D01*
X010602Y022850D02*
X010175Y022850D01*
X011779Y017163D02*
X012206Y017163D01*
X012420Y016518D02*
X011779Y016518D01*
X019813Y016652D02*
X019920Y016759D01*
X019920Y016972D01*
X019813Y017079D01*
X022810Y018217D02*
X022810Y018303D01*
X022810Y018260D02*
X023027Y018260D01*
X023070Y018217D01*
X023070Y018173D01*
X023027Y018130D01*
X023070Y018425D02*
X022810Y018425D01*
X022810Y018555D01*
X022853Y018598D01*
X022940Y018598D01*
X022983Y018555D01*
X022983Y018425D01*
X022897Y018719D02*
X022810Y018806D01*
X023070Y018806D01*
X023070Y018719D02*
X023070Y018893D01*
X026429Y021484D02*
X026536Y021591D01*
X026643Y021591D01*
X026750Y021484D01*
D11*
X023600Y000100D02*
X000100Y000100D01*
X000100Y028600D01*
X023600Y028600D01*
X023600Y023600D01*
X032600Y023600D01*
X032600Y021350D01*
X029350Y021350D01*
X029350Y020725D01*
X032600Y020725D01*
X032600Y007975D01*
X029100Y007975D01*
X029100Y007350D01*
X032600Y007350D01*
X032600Y005100D01*
X023600Y005100D01*
X023600Y000100D01*
D12*
X016839Y002797D02*
X016763Y002720D01*
X016609Y002720D01*
X016532Y002797D01*
X016532Y002873D01*
X016609Y002950D01*
X016763Y002950D01*
X016839Y002873D01*
X016839Y002797D01*
X016763Y002950D02*
X016839Y003027D01*
X016839Y003104D01*
X016763Y003180D01*
X016609Y003180D01*
X016532Y003104D01*
X016532Y003027D01*
X016609Y002950D01*
X016379Y002873D02*
X016225Y002720D01*
X016072Y002873D01*
X016072Y003180D01*
X015918Y003180D02*
X015765Y003104D01*
X015612Y002950D01*
X015842Y002950D01*
X015918Y002873D01*
X015918Y002797D01*
X015842Y002720D01*
X015688Y002720D01*
X015612Y002797D01*
X015612Y002950D01*
X015458Y002720D02*
X015151Y002720D01*
X014998Y002720D02*
X014691Y002720D01*
X014691Y003180D01*
X014537Y003027D02*
X014537Y002720D01*
X014537Y002950D02*
X014230Y002950D01*
X014230Y003027D02*
X014384Y003180D01*
X014537Y003027D01*
X014230Y003027D02*
X014230Y002720D01*
X014077Y002797D02*
X014077Y002950D01*
X013923Y002950D01*
X013770Y002797D02*
X013770Y003104D01*
X013847Y003180D01*
X014000Y003180D01*
X014077Y003104D01*
X014077Y002797D02*
X014000Y002720D01*
X013847Y002720D01*
X013770Y002797D01*
X012430Y002744D02*
X012430Y002437D01*
X012430Y002591D02*
X011970Y002591D01*
X012123Y002437D01*
X012046Y002284D02*
X011970Y002207D01*
X011970Y002054D01*
X012046Y001977D01*
X012353Y001977D01*
X012430Y002054D01*
X012430Y002207D01*
X012353Y002284D01*
X012430Y001823D02*
X012430Y001670D01*
X012430Y001747D02*
X011970Y001747D01*
X011970Y001823D02*
X011970Y001670D01*
X015151Y003027D02*
X015305Y003180D01*
X015305Y002720D01*
X016379Y002873D02*
X016379Y003180D01*
X023523Y017570D02*
X023370Y017723D01*
X023830Y017723D01*
X023830Y017570D02*
X023830Y017877D01*
X023753Y019870D02*
X023830Y019947D01*
X023830Y020100D01*
X023753Y020177D01*
X023677Y020177D01*
X023600Y020100D01*
X023600Y020023D01*
X023600Y020100D02*
X023523Y020177D01*
X023446Y020177D01*
X023370Y020100D01*
X023370Y019947D01*
X023446Y019870D01*
X017760Y025720D02*
X017760Y026180D01*
X017453Y026180D02*
X017760Y025720D01*
X017453Y025720D02*
X017453Y026180D01*
X017223Y026180D02*
X016993Y025950D01*
X017300Y025950D01*
X017223Y025720D02*
X017223Y026180D01*
X016839Y026180D02*
X016839Y026104D01*
X016532Y025797D01*
X016532Y025720D01*
X016379Y025797D02*
X016379Y025950D01*
X016302Y026027D01*
X016225Y026027D01*
X016072Y025950D01*
X016072Y026180D01*
X016379Y026180D01*
X016532Y026180D02*
X016839Y026180D01*
X016379Y025797D02*
X016302Y025720D01*
X016149Y025720D01*
X016072Y025797D01*
X015765Y025720D02*
X015765Y026180D01*
X015612Y026180D02*
X015918Y026180D01*
X015458Y026104D02*
X015381Y026180D01*
X015228Y026180D01*
X015151Y026104D01*
X015151Y025797D01*
X015228Y025720D01*
X015381Y025720D01*
X015458Y025797D01*
X014998Y025720D02*
X014998Y026180D01*
X014998Y025950D02*
X014691Y025950D01*
X014537Y025950D02*
X014230Y025950D01*
X014461Y026180D01*
X014461Y025720D01*
X014691Y025720D02*
X014691Y026180D01*
X014077Y026180D02*
X014077Y026104D01*
X013770Y025797D01*
X013770Y025720D01*
X013770Y026180D02*
X014077Y026180D01*
X012430Y025744D02*
X012430Y025437D01*
X012123Y025744D01*
X012046Y025744D01*
X011970Y025668D01*
X011970Y025514D01*
X012046Y025437D01*
X012046Y025284D02*
X011970Y025207D01*
X011970Y025054D01*
X012046Y024977D01*
X012353Y024977D01*
X012430Y025054D01*
X012430Y025207D01*
X012353Y025284D01*
X012430Y024823D02*
X012430Y024670D01*
X012430Y024747D02*
X011970Y024747D01*
X011970Y024823D02*
X011970Y024670D01*
X005780Y025551D02*
X005722Y025493D01*
X005780Y025551D02*
X005780Y025668D01*
X005722Y025726D01*
X005663Y025726D01*
X005605Y025668D01*
X005605Y025609D01*
X005605Y025668D02*
X005546Y025726D01*
X005488Y025726D01*
X005430Y025668D01*
X005430Y025551D01*
X005488Y025493D01*
X005430Y025852D02*
X005780Y025852D01*
X005663Y025852D02*
X005546Y026027D01*
X005488Y026151D02*
X005430Y026209D01*
X005430Y026326D01*
X005488Y026384D01*
X005546Y026384D01*
X005605Y026326D01*
X005663Y026384D01*
X005722Y026384D01*
X005780Y026326D01*
X005780Y026209D01*
X005722Y026151D01*
X005780Y026027D02*
X005663Y025852D01*
X005605Y026268D02*
X005605Y026326D01*
X004780Y026326D02*
X004780Y026209D01*
X004722Y026151D01*
X004780Y026027D02*
X004663Y025852D01*
X004546Y026027D01*
X004488Y026151D02*
X004430Y026209D01*
X004430Y026326D01*
X004488Y026384D01*
X004546Y026384D01*
X004605Y026326D01*
X004663Y026384D01*
X004722Y026384D01*
X004780Y026326D01*
X004605Y026326D02*
X004605Y026268D01*
X004780Y025852D02*
X004430Y025852D01*
X004488Y025726D02*
X004546Y025726D01*
X004605Y025668D01*
X004663Y025726D01*
X004722Y025726D01*
X004780Y025668D01*
X004780Y025551D01*
X004722Y025493D01*
X004605Y025609D02*
X004605Y025668D01*
X004488Y025726D02*
X004430Y025668D01*
X004430Y025551D01*
X004488Y025493D01*
X003780Y025551D02*
X003722Y025493D01*
X003780Y025551D02*
X003780Y025668D01*
X003722Y025726D01*
X003663Y025726D01*
X003605Y025668D01*
X003605Y025609D01*
X003605Y025668D02*
X003546Y025726D01*
X003488Y025726D01*
X003430Y025668D01*
X003430Y025551D01*
X003488Y025493D01*
X003430Y025852D02*
X003780Y025852D01*
X003663Y025852D02*
X003546Y026027D01*
X003488Y026151D02*
X003430Y026209D01*
X003430Y026326D01*
X003488Y026384D01*
X003546Y026384D01*
X003605Y026326D01*
X003663Y026384D01*
X003722Y026384D01*
X003780Y026326D01*
X003780Y026209D01*
X003722Y026151D01*
X003780Y026027D02*
X003663Y025852D01*
X003605Y026268D02*
X003605Y026326D01*
D13*
X007000Y023150D02*
X007000Y022850D01*
X007000Y022550D01*
X007200Y022550D02*
X007200Y022850D01*
X007200Y023150D01*
X011300Y026750D02*
X011600Y026750D01*
X011900Y026750D01*
X011900Y026950D02*
X011600Y026950D01*
X011300Y026950D01*
X014500Y023150D02*
X014500Y022850D01*
X014500Y022550D01*
X014700Y022550D02*
X014700Y022850D01*
X014700Y023150D01*
X022000Y021150D02*
X022000Y020850D01*
X022000Y020550D01*
X022200Y020550D02*
X022200Y020850D01*
X022200Y021150D01*
X011900Y003950D02*
X011600Y003950D01*
X011300Y003950D01*
X011300Y003750D02*
X011600Y003750D01*
X011900Y003750D01*
D14*
X005600Y024350D02*
X005600Y024700D01*
X004600Y024700D02*
X004600Y024350D01*
X003600Y024350D02*
X003600Y024700D01*
X003600Y027000D02*
X003600Y027350D01*
X004600Y027350D02*
X004600Y027000D01*
X005600Y027000D02*
X005600Y027350D01*
D15*
X005600Y026925D03*
X004600Y026925D03*
X003600Y026925D03*
X003600Y024775D03*
X004600Y024775D03*
X005600Y024775D03*
D16*
X023200Y019650D02*
X023200Y018050D01*
X023202Y018033D01*
X023206Y018016D01*
X023213Y018000D01*
X023223Y017986D01*
X023236Y017973D01*
X023250Y017963D01*
X023266Y017956D01*
X023283Y017952D01*
X023300Y017950D01*
X023900Y017950D01*
X023917Y017952D01*
X023934Y017956D01*
X023950Y017963D01*
X023964Y017973D01*
X023977Y017986D01*
X023987Y018000D01*
X023994Y018016D01*
X023998Y018033D01*
X024000Y018050D01*
X024000Y019650D01*
X023998Y019667D01*
X023994Y019684D01*
X023987Y019700D01*
X023977Y019714D01*
X023964Y019727D01*
X023950Y019737D01*
X023934Y019744D01*
X023917Y019748D01*
X023900Y019750D01*
X023300Y019750D01*
X023283Y019748D01*
X023266Y019744D01*
X023250Y019737D01*
X023236Y019727D01*
X023223Y019714D01*
X023213Y019700D01*
X023206Y019684D01*
X023202Y019667D01*
X023200Y019650D01*
X023600Y019700D02*
X023600Y019500D01*
X023600Y018200D02*
X023600Y018000D01*
X022600Y005600D02*
X022600Y005100D01*
X010600Y001600D02*
X010600Y001100D01*
D17*
X023327Y018476D02*
X023600Y018499D01*
X023600Y018499D01*
X023873Y018476D01*
X023874Y018475D01*
X023869Y018443D01*
X023860Y018411D01*
X023848Y018381D01*
X023832Y018353D01*
X023813Y018326D01*
X023791Y018302D01*
X023767Y018281D01*
X023740Y018263D01*
X023711Y018248D01*
X023680Y018237D01*
X023649Y018229D01*
X023616Y018225D01*
X023584Y018225D01*
X023551Y018229D01*
X023520Y018237D01*
X023489Y018248D01*
X023460Y018263D01*
X023433Y018281D01*
X023409Y018302D01*
X023387Y018326D01*
X023368Y018353D01*
X023352Y018381D01*
X023340Y018411D01*
X023331Y018443D01*
X023326Y018475D01*
X023373Y018475D01*
X023378Y018447D01*
X023387Y018419D01*
X023399Y018393D01*
X023414Y018368D01*
X023432Y018345D01*
X023453Y018325D01*
X023477Y018308D01*
X023502Y018294D01*
X023529Y018283D01*
X023557Y018276D01*
X023586Y018272D01*
X023614Y018272D01*
X023643Y018276D01*
X023671Y018283D01*
X023698Y018294D01*
X023723Y018308D01*
X023747Y018325D01*
X023768Y018345D01*
X023786Y018368D01*
X023801Y018393D01*
X023813Y018419D01*
X023822Y018447D01*
X023827Y018475D01*
X023779Y018475D01*
X023774Y018450D01*
X023765Y018425D01*
X023753Y018403D01*
X023737Y018382D01*
X023719Y018363D01*
X023698Y018348D01*
X023675Y018335D01*
X023651Y018326D01*
X023626Y018321D01*
X023600Y018319D01*
X023574Y018321D01*
X023549Y018326D01*
X023525Y018335D01*
X023502Y018348D01*
X023481Y018363D01*
X023463Y018382D01*
X023447Y018403D01*
X023435Y018425D01*
X023426Y018450D01*
X023421Y018475D01*
X023468Y018475D01*
X023474Y018454D01*
X023483Y018434D01*
X023495Y018416D01*
X023510Y018400D01*
X023528Y018387D01*
X023547Y018377D01*
X023568Y018370D01*
X023589Y018366D01*
X023611Y018366D01*
X023632Y018370D01*
X023653Y018377D01*
X023672Y018387D01*
X023690Y018400D01*
X023705Y018416D01*
X023717Y018434D01*
X023726Y018454D01*
X023732Y018475D01*
X023683Y018475D01*
X023677Y018459D01*
X023668Y018445D01*
X023655Y018433D01*
X023641Y018423D01*
X023625Y018417D01*
X023609Y018413D01*
X023591Y018413D01*
X023575Y018417D01*
X023559Y018423D01*
X023545Y018433D01*
X023532Y018445D01*
X023523Y018459D01*
X023517Y018475D01*
X023568Y018477D01*
X023575Y018469D01*
X023584Y018463D01*
X023595Y018460D01*
X023605Y018460D01*
X023616Y018463D01*
X023625Y018469D01*
X023632Y018477D01*
X023873Y019224D02*
X023600Y019201D01*
X023600Y019201D01*
X023327Y019224D01*
X023326Y019225D01*
X023331Y019257D01*
X023340Y019289D01*
X023352Y019319D01*
X023368Y019347D01*
X023387Y019374D01*
X023409Y019398D01*
X023433Y019419D01*
X023460Y019437D01*
X023489Y019452D01*
X023520Y019463D01*
X023551Y019471D01*
X023584Y019475D01*
X023616Y019475D01*
X023649Y019471D01*
X023680Y019463D01*
X023711Y019452D01*
X023740Y019437D01*
X023767Y019419D01*
X023791Y019398D01*
X023813Y019374D01*
X023832Y019347D01*
X023848Y019319D01*
X023860Y019289D01*
X023869Y019257D01*
X023874Y019225D01*
X023827Y019225D01*
X023822Y019253D01*
X023813Y019281D01*
X023801Y019307D01*
X023786Y019332D01*
X023768Y019355D01*
X023747Y019375D01*
X023723Y019392D01*
X023698Y019406D01*
X023671Y019417D01*
X023643Y019424D01*
X023614Y019428D01*
X023586Y019428D01*
X023557Y019424D01*
X023529Y019417D01*
X023502Y019406D01*
X023477Y019392D01*
X023453Y019375D01*
X023432Y019355D01*
X023414Y019332D01*
X023399Y019307D01*
X023387Y019281D01*
X023378Y019253D01*
X023373Y019225D01*
X023421Y019225D01*
X023426Y019250D01*
X023435Y019275D01*
X023447Y019297D01*
X023463Y019318D01*
X023481Y019337D01*
X023502Y019352D01*
X023525Y019365D01*
X023549Y019374D01*
X023574Y019379D01*
X023600Y019381D01*
X023626Y019379D01*
X023651Y019374D01*
X023675Y019365D01*
X023698Y019352D01*
X023719Y019337D01*
X023737Y019318D01*
X023753Y019297D01*
X023765Y019275D01*
X023774Y019250D01*
X023779Y019225D01*
X023732Y019225D01*
X023726Y019246D01*
X023717Y019266D01*
X023705Y019284D01*
X023690Y019300D01*
X023672Y019313D01*
X023653Y019323D01*
X023632Y019330D01*
X023611Y019334D01*
X023589Y019334D01*
X023568Y019330D01*
X023547Y019323D01*
X023528Y019313D01*
X023510Y019300D01*
X023495Y019284D01*
X023483Y019266D01*
X023474Y019246D01*
X023468Y019225D01*
X023517Y019225D01*
X023523Y019241D01*
X023532Y019255D01*
X023545Y019267D01*
X023559Y019277D01*
X023575Y019283D01*
X023591Y019287D01*
X023609Y019287D01*
X023625Y019283D01*
X023641Y019277D01*
X023655Y019267D01*
X023668Y019255D01*
X023677Y019241D01*
X023683Y019225D01*
X023632Y019223D01*
X023625Y019231D01*
X023616Y019237D01*
X023605Y019240D01*
X023595Y019240D01*
X023584Y019237D01*
X023575Y019231D01*
X023568Y019223D01*
D18*
X023600Y018850D03*
D19*
X023100Y021850D03*
X022100Y005350D03*
X021100Y005350D03*
X012100Y001350D03*
X011100Y001350D03*
M02*
