G75*
%MOIN*%
%OFA0B0*%
%FSLAX24Y24*%
%IPPOS*%
%LPD*%
%AMOC8*
5,1,8,0,0,1.08239X$1,22.5*
%
%ADD10R,0.2550X0.0600*%
%ADD11R,0.0594X0.0594*%
%ADD12C,0.0594*%
%ADD13C,0.0554*%
%ADD14R,0.0520X0.0520*%
%ADD15C,0.0520*%
%ADD16OC8,0.0520*%
%ADD17C,0.0660*%
%ADD18C,0.0660*%
%ADD19R,0.0250X0.0500*%
%ADD20C,0.0160*%
%ADD21C,0.0396*%
%ADD22R,0.0396X0.0396*%
%ADD23C,0.0320*%
D10*
X031100Y005850D03*
X031100Y006850D03*
X031100Y008850D03*
X031100Y009850D03*
X031100Y010850D03*
X031100Y011850D03*
X031100Y012850D03*
X031100Y013850D03*
X031100Y014850D03*
X031100Y015850D03*
X031100Y016850D03*
X031100Y017850D03*
X031100Y018850D03*
X031100Y019850D03*
X031100Y021850D03*
X031100Y022850D03*
D11*
X016600Y019850D03*
X001600Y021850D03*
X013100Y001350D03*
D12*
X014100Y001350D03*
X015100Y001350D03*
X016100Y001350D03*
X017100Y001350D03*
X018100Y001350D03*
X019100Y001350D03*
X020100Y001350D03*
X021100Y001350D03*
X022100Y001350D03*
X022100Y004350D03*
X021100Y004350D03*
X020100Y004350D03*
X019100Y004350D03*
X018100Y004350D03*
X017100Y004350D03*
X016100Y004350D03*
X015100Y004350D03*
X014100Y004350D03*
X013100Y004350D03*
X016600Y006850D03*
X016600Y007850D03*
X016600Y008850D03*
X016600Y009850D03*
X016600Y010850D03*
X016600Y011850D03*
X016600Y012850D03*
X016600Y013850D03*
X016600Y014850D03*
X016600Y015850D03*
X016600Y016850D03*
X016600Y017850D03*
X016600Y018850D03*
X022600Y018850D03*
X022600Y017850D03*
X022600Y016850D03*
X022600Y015850D03*
X022600Y014850D03*
X022600Y013850D03*
X022600Y012850D03*
X022600Y011850D03*
X022600Y010850D03*
X022600Y009850D03*
X022600Y008850D03*
X022600Y007850D03*
X022600Y006850D03*
X007600Y006850D03*
X007600Y007850D03*
X007600Y008850D03*
X007600Y009850D03*
X007600Y010850D03*
X007600Y011850D03*
X007600Y012850D03*
X007600Y013850D03*
X007600Y014850D03*
X007600Y015850D03*
X007600Y016850D03*
X007600Y017850D03*
X007600Y018850D03*
X007600Y019850D03*
X007600Y020850D03*
X007600Y021850D03*
X001600Y020850D03*
X001600Y019850D03*
X001600Y018850D03*
X001600Y016850D03*
X001600Y015850D03*
X001600Y014850D03*
X001600Y013850D03*
X001600Y012850D03*
X001600Y011850D03*
X001600Y010850D03*
X001600Y009850D03*
X001600Y008850D03*
X001600Y007850D03*
X001600Y006850D03*
X022600Y019850D03*
D13*
X001600Y017850D03*
D14*
X009100Y021850D03*
X013100Y024350D03*
D15*
X014100Y024350D03*
X015100Y024350D03*
X016100Y024350D03*
X017100Y024350D03*
X018100Y024350D03*
X019100Y024350D03*
X020100Y024350D03*
X021100Y024350D03*
X022100Y024350D03*
X022100Y027350D03*
X021100Y027350D03*
X020100Y027350D03*
X019100Y027350D03*
X018100Y027350D03*
X017100Y027350D03*
X016100Y027350D03*
X015100Y027350D03*
X014100Y027350D03*
X013100Y027350D03*
X015100Y021850D03*
X015100Y020850D03*
X015100Y019850D03*
X015100Y018850D03*
X015100Y017850D03*
X015100Y016850D03*
X015100Y015850D03*
X015100Y014850D03*
X015100Y013850D03*
X015100Y012850D03*
X015100Y011850D03*
X015100Y010850D03*
X015100Y009850D03*
X015100Y008850D03*
X015100Y007850D03*
X015100Y006850D03*
X009100Y006850D03*
X009100Y007850D03*
X009100Y008850D03*
X009100Y009850D03*
X009100Y010850D03*
X009100Y011850D03*
X009100Y012850D03*
X009100Y013850D03*
X009100Y014850D03*
X009100Y015850D03*
X009100Y016850D03*
X009100Y017850D03*
X009100Y018850D03*
X009100Y019850D03*
X009100Y020850D03*
D16*
X007600Y022850D03*
X006600Y022850D03*
X005600Y024350D03*
X004600Y024350D03*
X003600Y024350D03*
X003600Y027350D03*
X004600Y027350D03*
X005600Y027350D03*
X011600Y027350D03*
X011600Y026350D03*
X014100Y022850D03*
X015100Y022850D03*
X021600Y020850D03*
X022600Y020850D03*
X011600Y004350D03*
X011600Y003350D03*
D17*
X011100Y001350D03*
X012100Y001350D03*
X021100Y005350D03*
X022100Y005350D03*
D18*
X022770Y021850D02*
X023430Y021850D01*
D19*
X017762Y022350D03*
X017438Y022350D03*
D20*
X008100Y006350D02*
X002100Y006350D01*
X001600Y006850D01*
X002100Y007350D02*
X001600Y007850D01*
X002100Y007350D02*
X008100Y007350D01*
X008600Y007850D01*
X009100Y007850D01*
X009600Y007850D01*
X010100Y007350D01*
X010600Y007350D01*
X011100Y007350D01*
X015600Y007350D01*
X016100Y007850D01*
X016600Y007850D01*
X017100Y007850D01*
X017600Y007350D01*
X026100Y007350D01*
X028100Y009350D01*
X029100Y009350D01*
X029100Y009850D01*
X031100Y009850D01*
X031100Y010850D02*
X029100Y010850D01*
X029100Y010350D01*
X028100Y010350D01*
X026100Y008350D01*
X017600Y008350D01*
X017100Y008850D01*
X016600Y008850D01*
X016100Y008850D01*
X015600Y008350D01*
X013100Y008350D01*
X010100Y008350D01*
X009600Y008850D01*
X009100Y008850D01*
X008600Y008850D01*
X008100Y008350D01*
X002100Y008350D01*
X001600Y008850D01*
X002100Y009350D02*
X001600Y009850D01*
X002100Y009350D02*
X008100Y009350D01*
X008600Y009850D01*
X009100Y009850D01*
X009600Y009850D01*
X010100Y009350D01*
X012600Y009350D01*
X015600Y009350D01*
X016100Y009850D01*
X016600Y009850D01*
X017100Y009850D01*
X017600Y009350D01*
X026100Y009350D01*
X028100Y011350D01*
X029100Y011350D01*
X029100Y011850D01*
X031100Y011850D01*
X031100Y012850D02*
X029100Y012850D01*
X029100Y012350D01*
X028100Y012350D01*
X026100Y010350D01*
X017600Y010350D01*
X017100Y010850D01*
X016600Y010850D01*
X016100Y010850D01*
X015600Y010350D01*
X010100Y010350D01*
X009600Y010850D01*
X009100Y010850D01*
X008600Y010850D01*
X008100Y010350D01*
X002100Y010350D01*
X001600Y010850D01*
X002100Y011350D02*
X001600Y011850D01*
X002100Y011350D02*
X008100Y011350D01*
X008600Y011850D01*
X009100Y011850D01*
X009600Y011850D01*
X010100Y011350D01*
X015600Y011350D01*
X016100Y011850D01*
X016600Y011850D01*
X017100Y011850D01*
X017600Y011350D01*
X026100Y011350D01*
X028100Y013350D01*
X029100Y013350D01*
X029100Y013850D01*
X031100Y013850D01*
X031100Y014850D02*
X029100Y014850D01*
X029100Y014350D01*
X028100Y014350D01*
X026100Y012350D01*
X017600Y012350D01*
X017100Y012850D01*
X016600Y012850D01*
X016100Y012850D01*
X015600Y012350D01*
X010100Y012350D01*
X009600Y012850D01*
X009100Y012850D01*
X008600Y012850D01*
X008100Y012350D01*
X002100Y012350D01*
X001600Y012850D01*
X002100Y013350D02*
X008100Y013350D01*
X008600Y013850D01*
X009100Y013850D01*
X009600Y013850D01*
X010100Y013350D01*
X015600Y013350D01*
X016100Y013850D01*
X016600Y013850D01*
X017100Y013850D01*
X017600Y013350D01*
X026100Y013350D01*
X028100Y015350D01*
X029100Y015350D01*
X029100Y015850D01*
X031100Y015850D01*
X031100Y016850D02*
X029100Y016850D01*
X026600Y014350D01*
X017600Y014350D01*
X017100Y014850D01*
X016600Y014850D01*
X016100Y014850D01*
X015600Y014350D01*
X010100Y014350D01*
X009600Y014850D01*
X009100Y014850D01*
X008600Y014850D01*
X008100Y014350D01*
X002100Y014350D01*
X001600Y014850D01*
X002100Y015350D02*
X008100Y015350D01*
X008600Y015850D01*
X009100Y015850D01*
X009600Y015850D01*
X010100Y015350D01*
X015600Y015350D01*
X016100Y015850D01*
X016600Y015850D01*
X017100Y015850D01*
X017600Y015350D01*
X026100Y015350D01*
X027100Y016350D01*
X028100Y016350D01*
X029600Y017850D01*
X031100Y017850D01*
X031100Y018850D02*
X029600Y018850D01*
X028100Y017350D01*
X027100Y017350D01*
X026100Y016350D01*
X017600Y016350D01*
X017100Y016850D01*
X016600Y016850D01*
X016100Y016850D01*
X015600Y016350D01*
X010100Y016350D01*
X009600Y016850D01*
X009100Y016850D01*
X008600Y016850D01*
X008100Y016350D01*
X002100Y016350D01*
X001600Y016850D01*
X002100Y017350D02*
X008100Y017350D01*
X008600Y017850D01*
X009100Y017850D01*
X009600Y017850D01*
X010100Y017350D01*
X015600Y017350D01*
X016100Y017850D01*
X016600Y017850D01*
X017100Y017850D01*
X017600Y017350D01*
X026100Y017350D01*
X028600Y019850D01*
X031100Y019850D01*
X028100Y020350D02*
X026100Y018350D01*
X026100Y017850D01*
X022600Y017850D01*
X017600Y017850D01*
X017100Y018350D01*
X016100Y018350D01*
X015600Y017850D01*
X015100Y017850D01*
X010100Y017850D01*
X009600Y018350D01*
X008600Y018350D01*
X008100Y017850D01*
X007600Y017850D01*
X008100Y018350D02*
X008600Y018850D01*
X009100Y018850D01*
X009600Y018850D01*
X010100Y018350D01*
X015600Y018350D01*
X016100Y018850D01*
X016600Y018850D01*
X017100Y018850D01*
X017600Y018350D01*
X025600Y018350D01*
X026100Y019350D02*
X024600Y019350D01*
X017600Y019350D01*
X017100Y019850D01*
X016600Y019850D01*
X016100Y020350D02*
X015600Y019850D01*
X015100Y019850D01*
X014100Y019850D01*
X011600Y019850D01*
X011600Y020850D02*
X009100Y020850D01*
X008100Y021350D02*
X007600Y021850D01*
X008100Y021350D02*
X014100Y021350D01*
X014100Y019850D01*
X015100Y020850D02*
X016100Y020850D01*
X016600Y021350D01*
X017438Y022350D02*
X014100Y022350D01*
X013600Y021850D01*
X009100Y021850D01*
X007600Y020850D02*
X004600Y020850D01*
X003600Y019850D02*
X001600Y019850D01*
X001600Y020850D02*
X002600Y020850D01*
X003600Y021850D01*
X005600Y021850D01*
X006600Y022350D02*
X011100Y022350D01*
X013100Y022350D01*
X013600Y022850D01*
X014100Y022850D01*
X014600Y021850D02*
X014100Y021350D01*
X014600Y021850D02*
X015100Y021850D01*
X015600Y023350D02*
X010600Y023350D01*
X013100Y026350D02*
X012600Y026850D01*
X004100Y026850D01*
X003600Y026350D01*
X003600Y024350D01*
X004600Y024350D02*
X004600Y025350D01*
X005100Y025850D01*
X015100Y025850D01*
X015100Y027350D01*
X014100Y027350D02*
X014100Y026350D01*
X013100Y026350D01*
X013100Y027350D02*
X011600Y027350D01*
X005600Y027350D01*
X003600Y027350D01*
X004600Y027350D01*
X005600Y027350D01*
X006100Y025350D02*
X005600Y024850D01*
X005600Y024350D01*
X006100Y025350D02*
X016100Y025350D01*
X016100Y027350D01*
X018100Y027350D02*
X018100Y025350D01*
X016600Y025350D01*
X016600Y023350D01*
X016100Y023850D02*
X015600Y023350D01*
X016100Y023850D02*
X016100Y024350D01*
X017762Y022350D02*
X018100Y021850D01*
X018600Y021350D01*
X020600Y023350D01*
X021600Y023350D01*
X021100Y022850D02*
X031100Y022850D01*
X027100Y020850D02*
X027100Y020350D01*
X026100Y019350D01*
X025600Y019850D02*
X022600Y019850D01*
X017600Y019850D01*
X017100Y020350D01*
X016100Y020350D01*
X016100Y019350D02*
X015600Y018850D01*
X015100Y018850D01*
X010100Y018850D01*
X009600Y019350D01*
X008600Y019350D01*
X008100Y018850D01*
X007600Y018850D01*
X008100Y018350D02*
X002100Y018350D01*
X001600Y018850D01*
X001600Y017850D02*
X002100Y017350D01*
X001600Y015850D02*
X002100Y015350D01*
X001600Y013850D02*
X002100Y013350D01*
X007600Y012850D02*
X008100Y012850D01*
X008600Y013350D01*
X009600Y013350D01*
X010100Y012850D01*
X015100Y012850D01*
X015600Y012850D01*
X016100Y013350D01*
X017100Y013350D01*
X017600Y012850D01*
X022600Y012850D01*
X026100Y012850D01*
X028100Y014850D01*
X028600Y014850D01*
X027600Y015850D02*
X027100Y015850D01*
X026100Y014850D01*
X022600Y014850D01*
X017600Y014850D01*
X017100Y015350D01*
X016100Y015350D01*
X015600Y014850D01*
X015100Y014850D01*
X010100Y014850D01*
X009600Y015350D01*
X008600Y015350D01*
X008100Y014850D01*
X007600Y014850D01*
X007600Y015850D02*
X008100Y015850D01*
X008600Y016350D01*
X009600Y016350D01*
X010100Y015850D01*
X015100Y015850D01*
X015600Y015850D01*
X016100Y016350D01*
X017100Y016350D01*
X017600Y015850D01*
X022600Y015850D01*
X026100Y015850D01*
X027100Y016850D01*
X027600Y016850D01*
X027600Y017850D02*
X027100Y017850D01*
X026100Y016850D01*
X022600Y016850D01*
X017600Y016850D01*
X017100Y017350D01*
X016100Y017350D01*
X015600Y016850D01*
X015100Y016850D01*
X010100Y016850D01*
X009600Y017350D01*
X008600Y017350D01*
X008100Y016850D01*
X007600Y016850D01*
X008600Y012350D02*
X008100Y011850D01*
X007600Y011850D01*
X008600Y011350D02*
X009600Y011350D01*
X010100Y010850D01*
X015100Y010850D01*
X015600Y010850D01*
X016100Y011350D01*
X017100Y011350D01*
X017600Y010850D01*
X022600Y010850D01*
X026100Y010850D01*
X028100Y012850D01*
X028600Y012850D01*
X028600Y011850D02*
X028100Y011850D01*
X026100Y009850D01*
X022600Y009850D01*
X017600Y009850D01*
X017100Y010350D01*
X016100Y010350D01*
X015600Y009850D01*
X015100Y009850D01*
X010100Y009850D01*
X009600Y010350D01*
X008600Y010350D01*
X008100Y009850D01*
X007600Y009850D01*
X007600Y010850D02*
X008100Y010850D01*
X008600Y011350D01*
X008600Y012350D02*
X009600Y012350D01*
X010100Y011850D01*
X013600Y011850D01*
X016100Y009350D02*
X017100Y009350D01*
X017600Y008850D01*
X022600Y008850D01*
X026100Y008850D01*
X028100Y010850D01*
X028600Y010850D01*
X028600Y009850D02*
X028100Y009850D01*
X026100Y007850D01*
X022600Y007850D01*
X017600Y007850D01*
X017100Y008350D01*
X016100Y008350D01*
X015600Y007850D01*
X015100Y007850D01*
X010100Y007850D01*
X009600Y008350D01*
X008600Y008350D01*
X008100Y007850D01*
X007600Y007850D01*
X007600Y008850D02*
X008100Y008850D01*
X008600Y009350D01*
X009600Y009350D01*
X010100Y008850D01*
X015100Y008850D01*
X015600Y008850D01*
X016100Y009350D01*
X016100Y007350D02*
X017100Y007350D01*
X017600Y006850D01*
X022600Y006850D01*
X026100Y006850D01*
X028100Y008850D01*
X028600Y008850D01*
X028100Y008350D02*
X029100Y008350D01*
X029100Y008850D01*
X031100Y008850D01*
X028100Y008350D02*
X026100Y006350D01*
X017600Y006350D01*
X017100Y006850D01*
X016600Y006850D01*
X016100Y006850D01*
X015600Y006350D01*
X011100Y006350D01*
X010100Y006350D01*
X009600Y006850D01*
X009100Y006850D01*
X008600Y006850D01*
X008100Y006350D01*
X008100Y006850D02*
X008600Y007350D01*
X009600Y007350D01*
X010100Y006850D01*
X015100Y006850D01*
X015600Y006850D01*
X016100Y007350D01*
X017600Y005350D02*
X011600Y005350D01*
X011100Y004850D01*
X011100Y001350D01*
X012100Y001350D02*
X012100Y001850D01*
X013100Y002850D01*
X018600Y002850D01*
X019600Y002350D02*
X013600Y002350D01*
X013100Y001850D01*
X013100Y001350D01*
X011600Y003350D02*
X021600Y003350D01*
X022100Y003850D01*
X022100Y004350D01*
X022100Y005350D02*
X022100Y005850D01*
X022600Y005850D01*
X022600Y002350D01*
X021600Y002350D01*
X021100Y001850D01*
X021100Y001350D01*
X022600Y005850D02*
X031100Y005850D01*
X022600Y011850D02*
X020100Y011850D01*
X019100Y018850D02*
X017600Y018850D01*
X017100Y019350D01*
X016100Y019350D01*
X018600Y020350D02*
X021100Y022850D01*
X021100Y024350D02*
X020100Y024350D01*
X020100Y024850D02*
X021100Y025850D01*
X022600Y025850D01*
X022100Y024350D02*
X021100Y024350D01*
X021600Y020850D02*
X021600Y020350D01*
X026100Y020350D01*
X008100Y006850D02*
X007600Y006850D01*
X011600Y004350D02*
X013100Y004350D01*
X006600Y022350D02*
X006600Y022850D01*
D21*
X005600Y021850D03*
X004600Y020850D03*
X003600Y019850D03*
X010600Y023350D03*
X011100Y022350D03*
X011600Y020850D03*
X011600Y019850D03*
X016600Y021350D03*
X018600Y021350D03*
X018600Y020350D03*
X019100Y018850D03*
X016600Y023350D03*
X021600Y023350D03*
X022600Y025850D03*
X027100Y020850D03*
X026100Y020350D03*
X025600Y019850D03*
X024600Y019350D03*
X025600Y018350D03*
X027600Y017850D03*
X027600Y016850D03*
X027600Y015850D03*
X028600Y014850D03*
X028600Y012850D03*
X028600Y011850D03*
X028600Y010850D03*
X028600Y009850D03*
X028600Y008850D03*
X020100Y011850D03*
X013600Y011850D03*
X012600Y009350D03*
X013100Y008350D03*
X010600Y007350D03*
X011100Y006350D03*
X017600Y005350D03*
X018600Y002850D03*
X019600Y002350D03*
X028100Y020350D03*
D22*
X011600Y004350D03*
D23*
X023100Y021850D02*
X031100Y021850D01*
M02*
