%
M48
M72
T01C0.0236
T02C0.0320
T03C0.0354
T04C0.0394
%
T01
X10600Y7350
X11100Y6350
X11600Y4350
X13100Y8350
X12600Y9350
X13600Y11850
X20100Y11850
X27600Y15850
X27600Y16850
X27600Y17850
X25600Y18350
X24600Y19350
X25600Y19850
X26100Y20350
X27100Y20850
X28100Y20350
X28600Y14850
X28600Y12850
X28600Y11850
X28600Y10850
X28600Y9850
X28600Y8850
X19600Y2350
X18600Y2850
X17600Y5350
X19100Y18850
X18600Y20350
X18600Y21350
X16600Y21350
X16600Y23350
X21600Y23350
X22600Y25850
X11600Y20850
X11600Y19850
X11100Y22350
X10600Y23350
X5600Y21850
X4600Y20850
X3600Y19850
T02
X6600Y22850
X7600Y22850
X9100Y21850
X9100Y20850
X9100Y19850
X9100Y18850
X9100Y17850
X9100Y16850
X9100Y15850
X9100Y14850
X9100Y13850
X9100Y12850
X9100Y11850
X9100Y10850
X9100Y9850
X9100Y8850
X9100Y7850
X9100Y6850
X11600Y4350
X11600Y3350
X15100Y6850
X15100Y7850
X15100Y8850
X15100Y9850
X15100Y10850
X15100Y11850
X15100Y12850
X15100Y13850
X15100Y14850
X15100Y15850
X15100Y16850
X15100Y17850
X15100Y18850
X15100Y19850
X15100Y20850
X15100Y21850
X15100Y22850
X14100Y22850
X14100Y24350
X13100Y24350
X15100Y24350
X16100Y24350
X17100Y24350
X18100Y24350
X19100Y24350
X20100Y24350
X21100Y24350
X22100Y24350
X22100Y27350
X21100Y27350
X20100Y27350
X19100Y27350
X18100Y27350
X17100Y27350
X16100Y27350
X15100Y27350
X14100Y27350
X13100Y27350
X11600Y27350
X11600Y26350
X5600Y27350
X4600Y27350
X3600Y27350
X3600Y24350
X4600Y24350
X5600Y24350
X21600Y20850
X22600Y20850
T03
X1600Y17850
T04
X1600Y6850
X1600Y7850
X1600Y8850
X1600Y9850
X1600Y10850
X1600Y11850
X1600Y12850
X1600Y13850
X1600Y14850
X1600Y15850
X1600Y16850
X1600Y18850
X1600Y19850
X1600Y20850
X1600Y21850
X7600Y21850
X7600Y20850
X7600Y19850
X7600Y18850
X7600Y17850
X7600Y16850
X7600Y15850
X7600Y14850
X7600Y13850
X7600Y12850
X7600Y11850
X7600Y10850
X7600Y9850
X7600Y8850
X7600Y7850
X7600Y6850
X13100Y4350
X14100Y4350
X15100Y4350
X16100Y4350
X17100Y4350
X18100Y4350
X19100Y4350
X20100Y4350
X21100Y4350
X21100Y5350
X22100Y5350
X22100Y4350
X22600Y6850
X22600Y7850
X22600Y8850
X22600Y9850
X22600Y10850
X22600Y11850
X22600Y12850
X22600Y13850
X22600Y14850
X22600Y15850
X22600Y16850
X22600Y17850
X22600Y18850
X22600Y19850
X23100Y21850
X16600Y19850
X16600Y18850
X16600Y17850
X16600Y16850
X16600Y15850
X16600Y14850
X16600Y13850
X16600Y12850
X16600Y11850
X16600Y10850
X16600Y9850
X16600Y8850
X16600Y7850
X16600Y6850
X16100Y1350
X17100Y1350
X18100Y1350
X19100Y1350
X20100Y1350
X21100Y1350
X22100Y1350
X15100Y1350
X14100Y1350
X13100Y1350
X12100Y1350
X11100Y1350
M30
