G75*
%MOIN*%
%OFA0B0*%
%FSLAX24Y24*%
%IPPOS*%
%LPD*%
%AMOC8*
5,1,8,0,0,1.08239X$1,22.5*
%
%ADD10C,0.0060*%
%ADD11C,0.0030*%
%ADD12R,0.2550X0.0600*%
%ADD13R,0.0594X0.0594*%
%ADD14C,0.0594*%
%ADD15C,0.0554*%
%ADD16R,0.0520X0.0520*%
%ADD17C,0.0520*%
%ADD18OC8,0.0520*%
%ADD19R,0.0630X0.0460*%
%ADD20C,0.0660*%
%ADD21C,0.0660*%
%ADD22C,0.0160*%
%ADD23C,0.0396*%
%ADD24R,0.0396X0.0396*%
D10*
X002036Y000987D02*
X002463Y000987D01*
X002570Y001094D01*
X002463Y001310D02*
X002250Y001310D01*
X002143Y001416D01*
X002143Y001737D01*
X001929Y001737D02*
X002570Y001737D01*
X002570Y001416D01*
X002463Y001310D01*
X002143Y001094D02*
X002143Y000880D01*
X002143Y001954D02*
X002143Y002061D01*
X002570Y002061D01*
X002570Y001954D02*
X002570Y002168D01*
X002463Y002384D02*
X002250Y002384D01*
X002143Y002491D01*
X002143Y002811D01*
X001929Y002811D02*
X002570Y002811D01*
X002570Y002491D01*
X002463Y002384D01*
X001929Y002061D02*
X001823Y002061D01*
X002143Y003028D02*
X002143Y003135D01*
X002570Y003135D01*
X002570Y003028D02*
X002570Y003242D01*
X002463Y003458D02*
X002250Y003458D01*
X002143Y003565D01*
X002143Y003885D01*
X001929Y003885D02*
X002570Y003885D01*
X002570Y003565D01*
X002463Y003458D01*
X001929Y003135D02*
X001823Y003135D01*
X002143Y004103D02*
X002143Y004210D01*
X002570Y004210D01*
X002570Y004316D02*
X002570Y004103D01*
X002143Y004532D02*
X002143Y004746D01*
X002036Y004639D02*
X002463Y004639D01*
X002570Y004746D01*
X002570Y004962D02*
X002570Y005069D01*
X002463Y005069D01*
X002463Y004962D01*
X002570Y004962D01*
X002463Y005284D02*
X002250Y005284D01*
X002143Y005391D01*
X002143Y005711D01*
X002250Y005929D02*
X002463Y005929D01*
X002570Y006036D01*
X002570Y006249D01*
X002463Y006356D01*
X002250Y006356D01*
X002143Y006249D01*
X002143Y006036D01*
X002250Y005929D01*
X002570Y005711D02*
X002570Y005391D01*
X002463Y005284D01*
X001929Y004210D02*
X001823Y004210D01*
X002143Y006574D02*
X002143Y006680D01*
X002250Y006787D01*
X002143Y006894D01*
X002250Y007001D01*
X002570Y007001D01*
X002570Y006787D02*
X002250Y006787D01*
X002143Y006574D02*
X002570Y006574D01*
D11*
X003855Y006362D02*
X004048Y006169D01*
X004000Y006217D02*
X004145Y006362D01*
X004145Y006169D02*
X003855Y006169D01*
X003855Y006068D02*
X004145Y006068D01*
X003855Y005874D01*
X004145Y005874D01*
X004145Y005773D02*
X003952Y005773D01*
X003855Y005676D01*
X003952Y005579D01*
X004145Y005579D01*
X004097Y005478D02*
X004145Y005430D01*
X004145Y005285D01*
X003855Y005285D01*
X003855Y005430D01*
X003903Y005478D01*
X003952Y005478D01*
X004000Y005430D01*
X004000Y005285D01*
X004000Y005430D02*
X004048Y005478D01*
X004097Y005478D01*
X004000Y005579D02*
X004000Y005773D01*
X004335Y005774D02*
X004432Y005678D01*
X004625Y005678D01*
X004577Y005576D02*
X004625Y005528D01*
X004625Y005383D01*
X004335Y005383D01*
X004335Y005528D01*
X004383Y005576D01*
X004432Y005576D01*
X004480Y005528D01*
X004480Y005383D01*
X004480Y005528D02*
X004528Y005576D01*
X004577Y005576D01*
X004480Y005678D02*
X004480Y005871D01*
X004432Y005871D02*
X004625Y005871D01*
X004625Y005972D02*
X004335Y005972D01*
X004625Y006166D01*
X004335Y006166D01*
X004335Y006267D02*
X004625Y006267D01*
X004528Y006267D02*
X004335Y006460D01*
X004480Y006315D02*
X004625Y006460D01*
X004815Y006412D02*
X004863Y006460D01*
X004912Y006460D01*
X004960Y006412D01*
X004960Y006267D01*
X004960Y006166D02*
X004960Y005972D01*
X004912Y005972D02*
X004815Y006069D01*
X004912Y006166D01*
X005105Y006166D01*
X005105Y006267D02*
X005105Y006412D01*
X005057Y006460D01*
X005008Y006460D01*
X004960Y006412D01*
X004815Y006412D02*
X004815Y006267D01*
X005105Y006267D01*
X005295Y006169D02*
X005585Y006169D01*
X005585Y006362D01*
X005585Y006463D02*
X005585Y006657D01*
X005440Y006560D02*
X005440Y006463D01*
X005295Y006463D02*
X005585Y006463D01*
X005295Y006463D02*
X005295Y006657D01*
X005105Y006562D02*
X005105Y006755D01*
X005105Y006856D02*
X005105Y007050D01*
X004960Y006953D02*
X004960Y006856D01*
X004815Y006856D02*
X005105Y006856D01*
X004815Y006856D02*
X004815Y007050D01*
X004815Y006562D02*
X005105Y006562D01*
X005343Y006068D02*
X005392Y006068D01*
X005440Y006019D01*
X005440Y005874D01*
X005440Y005773D02*
X005440Y005579D01*
X005392Y005579D02*
X005295Y005676D01*
X005392Y005773D01*
X005585Y005773D01*
X005585Y005874D02*
X005585Y006019D01*
X005537Y006068D01*
X005488Y006068D01*
X005440Y006019D01*
X005343Y006068D02*
X005295Y006019D01*
X005295Y005874D01*
X005585Y005874D01*
X005585Y005579D02*
X005392Y005579D01*
X005295Y005478D02*
X005585Y005478D01*
X005295Y005285D01*
X005585Y005285D01*
X005585Y005184D02*
X005585Y004990D01*
X005295Y004990D01*
X005295Y005184D01*
X005440Y005087D02*
X005440Y004990D01*
X005105Y004890D02*
X004960Y004890D01*
X004863Y004987D01*
X004815Y004987D01*
X004960Y004890D02*
X004863Y004794D01*
X004815Y004794D01*
X004815Y004693D02*
X004815Y004499D01*
X005105Y004499D01*
X005105Y004693D01*
X004960Y004596D02*
X004960Y004499D01*
X005105Y004398D02*
X004960Y004253D01*
X005008Y004204D02*
X004815Y004398D01*
X004815Y004204D02*
X005105Y004204D01*
X005057Y004103D02*
X004863Y004103D01*
X004815Y004055D01*
X004815Y003958D01*
X004863Y003910D01*
X005057Y003910D01*
X005105Y003958D01*
X005105Y004055D01*
X005057Y004103D01*
X005295Y004155D02*
X005343Y004106D01*
X005537Y004106D01*
X005585Y004155D01*
X005585Y004251D01*
X005537Y004300D01*
X005343Y004300D01*
X005295Y004251D01*
X005295Y004155D01*
X005295Y004006D02*
X005295Y003910D01*
X005295Y003958D02*
X005585Y003958D01*
X005585Y003910D02*
X005585Y004006D01*
X005537Y003809D02*
X005585Y003760D01*
X005585Y003615D01*
X005295Y003615D01*
X005295Y003760D01*
X005343Y003809D01*
X005392Y003809D01*
X005440Y003760D01*
X005440Y003615D01*
X005440Y003760D02*
X005488Y003809D01*
X005537Y003809D01*
X005105Y003615D02*
X004815Y003615D01*
X004815Y003760D01*
X004863Y003809D01*
X004960Y003809D01*
X005008Y003760D01*
X005008Y003615D01*
X004625Y003615D02*
X004432Y003615D01*
X004335Y003712D01*
X004432Y003809D01*
X004625Y003809D01*
X004625Y003910D02*
X004335Y003910D01*
X004432Y004006D01*
X004335Y004103D01*
X004625Y004103D01*
X004480Y003809D02*
X004480Y003615D01*
X004480Y003514D02*
X004528Y003466D01*
X004528Y003320D01*
X004625Y003320D02*
X004335Y003320D01*
X004335Y003466D01*
X004383Y003514D01*
X004480Y003514D01*
X004528Y003417D02*
X004625Y003514D01*
X004145Y003514D02*
X004048Y003417D01*
X004048Y003466D02*
X004048Y003320D01*
X004145Y003320D02*
X003855Y003320D01*
X003855Y003466D01*
X003903Y003514D01*
X004000Y003514D01*
X004048Y003466D01*
X004000Y003615D02*
X004000Y003809D01*
X003952Y003809D02*
X004145Y003809D01*
X004145Y003910D02*
X003855Y003910D01*
X003952Y004006D01*
X003855Y004103D01*
X004145Y004103D01*
X003952Y003809D02*
X003855Y003712D01*
X003952Y003615D01*
X004145Y003615D01*
X004145Y004499D02*
X003855Y004499D01*
X004000Y004499D02*
X004000Y004693D01*
X003855Y004693D02*
X004145Y004693D01*
X004145Y004794D02*
X004145Y004890D01*
X004145Y004842D02*
X003855Y004842D01*
X003855Y004794D02*
X003855Y004890D01*
X004335Y004842D02*
X004383Y004794D01*
X004577Y004794D01*
X004625Y004842D01*
X004625Y004939D01*
X004577Y004987D01*
X004383Y004987D01*
X004335Y004939D01*
X004335Y004842D01*
X004625Y004693D02*
X004625Y004499D01*
X004335Y004499D01*
X005295Y004546D02*
X005295Y004449D01*
X005343Y004401D01*
X005392Y004401D01*
X005440Y004449D01*
X005440Y004546D01*
X005488Y004594D01*
X005537Y004594D01*
X005585Y004546D01*
X005585Y004449D01*
X005537Y004401D01*
X005343Y004594D02*
X005295Y004546D01*
X005105Y005383D02*
X004815Y005383D01*
X004815Y005576D01*
X004815Y005678D02*
X005105Y005871D01*
X004815Y005871D01*
X004912Y005972D02*
X005105Y005972D01*
X005105Y005678D02*
X004815Y005678D01*
X004960Y005480D02*
X004960Y005383D01*
X005105Y005383D02*
X005105Y005576D01*
X004432Y005871D02*
X004335Y005774D01*
X004335Y002630D02*
X004335Y002436D01*
X004480Y002436D01*
X004432Y002533D01*
X004432Y002582D01*
X004480Y002630D01*
X004577Y002630D01*
X004625Y002582D01*
X004625Y002485D01*
X004577Y002436D01*
X004480Y002335D02*
X004480Y002142D01*
X004528Y002041D02*
X004577Y002041D01*
X004625Y001992D01*
X004625Y001896D01*
X004577Y001847D01*
X004480Y001944D02*
X004480Y001992D01*
X004528Y002041D01*
X004480Y001992D02*
X004432Y002041D01*
X004383Y002041D01*
X004335Y001992D01*
X004335Y001896D01*
X004383Y001847D01*
X004145Y001896D02*
X004097Y001847D01*
X003903Y002041D01*
X004097Y002041D01*
X004145Y001992D01*
X004145Y001896D01*
X004097Y001847D02*
X003903Y001847D01*
X003855Y001896D01*
X003855Y001992D01*
X003903Y002041D01*
X004000Y002142D02*
X004000Y002335D01*
X003903Y002436D02*
X003855Y002485D01*
X003855Y002582D01*
X003903Y002630D01*
X003952Y002630D01*
X004145Y002436D01*
X004145Y002630D01*
X004815Y002041D02*
X004863Y001944D01*
X004960Y001847D01*
X004960Y001992D01*
X005008Y002041D01*
X005057Y002041D01*
X005105Y001992D01*
X005105Y001896D01*
X005057Y001847D01*
X004960Y001847D01*
X005295Y001847D02*
X005295Y002041D01*
X005343Y002041D01*
X005537Y001847D01*
X005585Y001847D01*
X005585Y001453D02*
X005537Y001404D01*
X005343Y001404D01*
X005392Y001356D02*
X005392Y001453D01*
X005392Y001208D02*
X005585Y001208D01*
X005585Y001160D02*
X005585Y001256D01*
X005392Y001208D02*
X005392Y001160D01*
X005295Y001208D02*
X005246Y001208D01*
X005105Y001208D02*
X004912Y001208D01*
X004912Y001160D01*
X004815Y001208D02*
X004766Y001208D01*
X004625Y001208D02*
X004432Y001208D01*
X004432Y001160D01*
X004335Y001208D02*
X004286Y001208D01*
X004145Y001208D02*
X003952Y001208D01*
X003952Y001160D01*
X003855Y001208D02*
X003806Y001208D01*
X003952Y001356D02*
X003952Y001453D01*
X003903Y001404D02*
X004097Y001404D01*
X004145Y001453D01*
X004145Y001256D02*
X004145Y001160D01*
X004097Y001058D02*
X004000Y001058D01*
X003952Y001010D01*
X003952Y000865D01*
X003855Y000865D02*
X004145Y000865D01*
X004145Y001010D01*
X004097Y001058D01*
X004335Y000865D02*
X004625Y000865D01*
X004625Y001010D01*
X004577Y001058D01*
X004480Y001058D01*
X004432Y001010D01*
X004432Y000865D01*
X004625Y001160D02*
X004625Y001256D01*
X004577Y001404D02*
X004625Y001453D01*
X004577Y001404D02*
X004383Y001404D01*
X004432Y001356D02*
X004432Y001453D01*
X004863Y001404D02*
X005057Y001404D01*
X005105Y001453D01*
X004912Y001453D02*
X004912Y001356D01*
X005105Y001256D02*
X005105Y001160D01*
X005057Y001058D02*
X004960Y001058D01*
X004912Y001010D01*
X004912Y000865D01*
X004815Y000865D02*
X005105Y000865D01*
X005105Y001010D01*
X005057Y001058D01*
X005295Y000865D02*
X005585Y000865D01*
X005585Y001010D01*
X005537Y001058D01*
X005440Y001058D01*
X005392Y001010D01*
X005392Y000865D01*
D12*
X031100Y005850D03*
X031100Y006850D03*
X031100Y008850D03*
X031100Y009850D03*
X031100Y010850D03*
X031100Y011850D03*
X031100Y012850D03*
X031100Y013850D03*
X031100Y014850D03*
X031100Y015850D03*
X031100Y016850D03*
X031100Y017850D03*
X031100Y018850D03*
X031100Y019850D03*
X031100Y021850D03*
X031100Y022850D03*
D13*
X016600Y019850D03*
X001600Y021850D03*
X013100Y001350D03*
D14*
X014100Y001350D03*
X015100Y001350D03*
X016100Y001350D03*
X017100Y001350D03*
X018100Y001350D03*
X019100Y001350D03*
X020100Y001350D03*
X021100Y001350D03*
X022100Y001350D03*
X022100Y004350D03*
X021100Y004350D03*
X020100Y004350D03*
X019100Y004350D03*
X018100Y004350D03*
X017100Y004350D03*
X016100Y004350D03*
X015100Y004350D03*
X014100Y004350D03*
X013100Y004350D03*
X016600Y006850D03*
X016600Y007850D03*
X016600Y008850D03*
X016600Y009850D03*
X016600Y010850D03*
X016600Y011850D03*
X016600Y012850D03*
X016600Y013850D03*
X016600Y014850D03*
X016600Y015850D03*
X016600Y016850D03*
X016600Y017850D03*
X016600Y018850D03*
X022600Y018850D03*
X022600Y017850D03*
X022600Y016850D03*
X022600Y015850D03*
X022600Y014850D03*
X022600Y013850D03*
X022600Y012850D03*
X022600Y011850D03*
X022600Y010850D03*
X022600Y009850D03*
X022600Y008850D03*
X022600Y007850D03*
X022600Y006850D03*
X007600Y006850D03*
X007600Y007850D03*
X007600Y008850D03*
X007600Y009850D03*
X007600Y010850D03*
X007600Y011850D03*
X007600Y012850D03*
X007600Y013850D03*
X007600Y014850D03*
X007600Y015850D03*
X007600Y016850D03*
X007600Y017850D03*
X007600Y018850D03*
X007600Y019850D03*
X007600Y020850D03*
X007600Y021850D03*
X001600Y020850D03*
X001600Y019850D03*
X001600Y018850D03*
X001600Y016850D03*
X001600Y015850D03*
X001600Y014850D03*
X001600Y013850D03*
X001600Y012850D03*
X001600Y011850D03*
X001600Y010850D03*
X001600Y009850D03*
X001600Y008850D03*
X001600Y007850D03*
X001600Y006850D03*
X022600Y019850D03*
D15*
X001600Y017850D03*
D16*
X009100Y021850D03*
X013100Y024350D03*
D17*
X014100Y024350D03*
X015100Y024350D03*
X016100Y024350D03*
X017100Y024350D03*
X018100Y024350D03*
X019100Y024350D03*
X020100Y024350D03*
X021100Y024350D03*
X022100Y024350D03*
X022100Y027350D03*
X021100Y027350D03*
X020100Y027350D03*
X019100Y027350D03*
X018100Y027350D03*
X017100Y027350D03*
X016100Y027350D03*
X015100Y027350D03*
X014100Y027350D03*
X013100Y027350D03*
X015100Y021850D03*
X015100Y020850D03*
X015100Y019850D03*
X015100Y018850D03*
X015100Y017850D03*
X015100Y016850D03*
X015100Y015850D03*
X015100Y014850D03*
X015100Y013850D03*
X015100Y012850D03*
X015100Y011850D03*
X015100Y010850D03*
X015100Y009850D03*
X015100Y008850D03*
X015100Y007850D03*
X015100Y006850D03*
X009100Y006850D03*
X009100Y007850D03*
X009100Y008850D03*
X009100Y009850D03*
X009100Y010850D03*
X009100Y011850D03*
X009100Y012850D03*
X009100Y013850D03*
X009100Y014850D03*
X009100Y015850D03*
X009100Y016850D03*
X009100Y017850D03*
X009100Y018850D03*
X009100Y019850D03*
X009100Y020850D03*
D18*
X007600Y022850D03*
X006600Y022850D03*
X005600Y024350D03*
X004600Y024350D03*
X003600Y024350D03*
X003600Y027350D03*
X004600Y027350D03*
X005600Y027350D03*
X011600Y027350D03*
X011600Y026350D03*
X014100Y022850D03*
X015100Y022850D03*
X021600Y020850D03*
X022600Y020850D03*
X011600Y004350D03*
X011600Y003350D03*
D19*
X023600Y018300D03*
X023600Y018850D03*
X023600Y019400D03*
D20*
X022100Y005350D03*
X021100Y005350D03*
X012100Y001350D03*
X011100Y001350D03*
D21*
X022770Y021850D02*
X023430Y021850D01*
D22*
X001600Y006350D02*
X001600Y000350D01*
X003100Y000350D01*
X003100Y006350D01*
X001600Y006350D01*
X006600Y011850D02*
X007600Y011850D01*
X006600Y011850D02*
X006600Y013850D01*
X007600Y013850D01*
X012600Y009350D02*
X012600Y022350D01*
X014100Y023850D01*
X014100Y024350D01*
X014600Y023850D02*
X014600Y025350D01*
X021100Y025350D01*
X021100Y024350D01*
X022100Y024350D02*
X022100Y022850D01*
X021600Y022350D01*
X021600Y020850D01*
X020600Y021350D02*
X020600Y019350D01*
X021100Y018850D01*
X021100Y008350D01*
X021600Y007850D01*
X022600Y007850D01*
X022600Y008850D02*
X022100Y008850D01*
X021600Y009350D01*
X021600Y019350D01*
X021100Y019850D01*
X021100Y021850D01*
X019100Y023850D01*
X019100Y024350D01*
X018100Y024350D02*
X018100Y023850D01*
X020600Y021350D01*
X020100Y020850D02*
X017100Y023850D01*
X017100Y024350D01*
X016600Y023350D02*
X016600Y021350D01*
X015100Y021850D02*
X015100Y022850D01*
X014600Y022350D02*
X014100Y021850D01*
X013100Y021850D01*
X013100Y008350D01*
X014100Y006350D02*
X016600Y006350D01*
X016600Y003350D01*
X015100Y001850D01*
X015100Y001350D01*
X014100Y002850D02*
X013100Y001850D01*
X013100Y001350D01*
X014100Y002850D02*
X014100Y004350D01*
X015100Y004350D02*
X015100Y005350D01*
X012100Y005350D01*
X012100Y022850D01*
X013100Y023850D01*
X013100Y024350D01*
X014100Y023350D02*
X014600Y023850D01*
X014600Y023350D02*
X014600Y022350D01*
X014100Y022850D02*
X014100Y023350D01*
X014600Y023350D02*
X015100Y023850D01*
X015100Y024350D01*
X013100Y025850D02*
X011600Y024350D01*
X011600Y020850D01*
X011600Y019850D02*
X011600Y004350D01*
X011600Y003350D02*
X011100Y003350D01*
X011100Y006350D01*
X011100Y022350D01*
X011100Y025850D01*
X011600Y026350D01*
X011100Y026850D02*
X010100Y025850D01*
X010100Y019850D01*
X009100Y019850D01*
X007600Y019850D02*
X006600Y019850D01*
X006600Y021850D01*
X007600Y021850D01*
X007600Y022850D01*
X007600Y025350D01*
X005600Y027350D01*
X005600Y024350D02*
X005600Y021850D01*
X004600Y020850D02*
X004600Y024350D01*
X003600Y024350D02*
X003600Y019850D01*
X010600Y023350D02*
X010600Y007350D01*
X013600Y005850D02*
X013600Y011850D01*
X014100Y011850D02*
X014100Y013850D01*
X015100Y013850D01*
X016100Y012350D02*
X015600Y011850D01*
X015100Y011850D01*
X014100Y011850D01*
X014100Y010850D02*
X014100Y006350D01*
X013600Y005850D02*
X016100Y005850D01*
X016100Y004350D01*
X017100Y004350D02*
X017100Y005850D01*
X017600Y006350D01*
X017600Y011850D01*
X017100Y012350D01*
X016100Y012350D01*
X015100Y010850D02*
X014100Y010850D01*
X020100Y011850D02*
X020100Y004350D01*
X020600Y004850D02*
X020600Y006350D01*
X023600Y006350D01*
X024100Y006850D01*
X024100Y013350D01*
X023600Y013850D01*
X022600Y013850D01*
X025100Y015350D02*
X028600Y011850D01*
X031100Y011850D01*
X031100Y012850D02*
X028600Y012850D01*
X028600Y013850D02*
X031100Y013850D01*
X031100Y014850D02*
X028600Y014850D01*
X028600Y013850D02*
X025600Y016850D01*
X025600Y018350D01*
X024600Y018850D02*
X024600Y019350D01*
X024600Y018850D02*
X024050Y018300D01*
X023600Y018300D01*
X023600Y018850D02*
X022600Y018850D01*
X023600Y019400D02*
X023150Y019850D01*
X022600Y019850D01*
X022600Y020850D01*
X022600Y022850D02*
X025100Y022850D01*
X025100Y015350D01*
X027600Y015850D02*
X031100Y015850D01*
X031100Y016850D02*
X027600Y016850D01*
X027600Y017850D02*
X031100Y017850D01*
X031100Y018850D02*
X026600Y018850D01*
X025600Y019850D01*
X026100Y020350D02*
X026600Y019850D01*
X031100Y019850D01*
X031100Y021850D02*
X028600Y021850D01*
X028100Y021350D01*
X028100Y020350D01*
X027100Y020850D02*
X027100Y022350D01*
X027600Y022850D01*
X031100Y022850D01*
X022600Y022850D02*
X022600Y025850D01*
X022100Y026850D02*
X021600Y026350D01*
X021600Y023350D01*
X018600Y021350D02*
X019600Y020350D01*
X019600Y002350D01*
X019100Y001850D02*
X018600Y002350D01*
X018600Y002850D01*
X018600Y020350D01*
X020100Y020850D02*
X020100Y018850D01*
X020600Y018350D01*
X020600Y007350D01*
X021100Y006850D01*
X022600Y006850D01*
X021600Y005850D02*
X021100Y005850D01*
X021100Y005350D01*
X020600Y004850D02*
X021100Y004350D01*
X022100Y004350D02*
X022100Y001350D01*
X020100Y001350D02*
X020100Y001850D01*
X021600Y003350D01*
X021600Y005850D01*
X031100Y005850D01*
X031100Y008850D02*
X028600Y008850D01*
X028600Y009850D02*
X031100Y009850D01*
X031100Y010850D02*
X028600Y010850D01*
X019100Y004350D02*
X019100Y018850D01*
X018100Y018850D02*
X017100Y019850D01*
X016600Y019850D01*
X018100Y018850D02*
X018100Y005850D01*
X017600Y005350D01*
X017600Y002350D01*
X018100Y001850D01*
X018100Y001350D01*
X019100Y001350D02*
X019100Y001850D01*
X019100Y025850D02*
X013100Y025850D01*
X013100Y026350D02*
X012600Y026850D01*
X011100Y026850D01*
X013100Y026350D02*
X017100Y026350D01*
X017100Y027350D01*
X019100Y027350D02*
X019100Y025850D01*
X022100Y026850D02*
X022100Y027350D01*
D23*
X022600Y025850D03*
X021600Y023350D03*
X018600Y021350D03*
X018600Y020350D03*
X019100Y018850D03*
X016600Y021350D03*
X016600Y023350D03*
X011600Y020850D03*
X011600Y019850D03*
X011100Y022350D03*
X010600Y023350D03*
X005600Y021850D03*
X004600Y020850D03*
X003600Y019850D03*
X013600Y011850D03*
X012600Y009350D03*
X013100Y008350D03*
X010600Y007350D03*
X011100Y006350D03*
X017600Y005350D03*
X018600Y002850D03*
X019600Y002350D03*
X028600Y008850D03*
X028600Y009850D03*
X028600Y010850D03*
X028600Y011850D03*
X028600Y012850D03*
X028600Y014850D03*
X027600Y015850D03*
X027600Y016850D03*
X027600Y017850D03*
X025600Y018350D03*
X024600Y019350D03*
X025600Y019850D03*
X026100Y020350D03*
X027100Y020850D03*
X028100Y020350D03*
X020100Y011850D03*
D24*
X011600Y004350D03*
M02*
