G75*
%MOIN*%
%OFA0B0*%
%FSLAX24Y24*%
%IPPOS*%
%LPD*%
%AMOC8*
5,1,8,0,0,1.08239X$1,22.5*
%
%ADD10C,0.0000*%
%ADD11C,0.0060*%
D10*
X000100Y000100D02*
X023600Y000100D01*
X023600Y005100D01*
X032600Y005100D01*
X032600Y007350D01*
X029100Y007350D01*
X029100Y007975D01*
X032600Y007975D01*
X032600Y020725D01*
X029350Y020725D01*
X029350Y021350D01*
X032600Y021350D01*
X032600Y023600D01*
X023600Y023600D01*
X023600Y028600D01*
X000100Y028600D01*
X000100Y000100D01*
D11*
X017285Y021956D02*
X017915Y021956D01*
X017915Y021955D02*
X017934Y021955D01*
X017953Y021959D01*
X017971Y021965D01*
X017987Y021974D01*
X018002Y021987D01*
X018014Y022001D01*
X018024Y022018D01*
X018030Y022036D01*
X018034Y022054D01*
X018033Y022055D02*
X018033Y022645D01*
X018034Y022645D02*
X018030Y022664D01*
X018024Y022681D01*
X018014Y022698D01*
X018002Y022712D01*
X017987Y022724D01*
X017971Y022734D01*
X017953Y022740D01*
X017934Y022744D01*
X017915Y022744D01*
X017285Y022744D01*
X017266Y022744D01*
X017247Y022740D01*
X017229Y022734D01*
X017213Y022724D01*
X017198Y022712D01*
X017186Y022698D01*
X017176Y022681D01*
X017170Y022664D01*
X017166Y022645D01*
X017167Y022645D02*
X017167Y022055D01*
X017166Y022055D02*
X017170Y022036D01*
X017176Y022019D01*
X017186Y022002D01*
X017198Y021988D01*
X017213Y021976D01*
X017229Y021966D01*
X017247Y021960D01*
X017266Y021956D01*
X017285Y021956D01*
M02*
